<mxfile host="app.diagrams.net" agent="Mozilla/5.0 (Macintosh; Intel Mac OS X 10_15_7) AppleWebKit/537.36 (KHTML, like Gecko) Chrome/136.0.0.0 Safari/537.36 Edg/136.0.0.0" version="27.0.3" pages="2">
  <diagram name="Σελίδα-1" id="pG6_ybRGlOk3oKgYVEJ9">
    <mxGraphModel dx="1835" dy="1004" grid="0" gridSize="10" guides="1" tooltips="1" connect="1" arrows="1" fold="1" page="0" pageScale="1" pageWidth="827" pageHeight="1169" math="0" shadow="0">
      <root>
        <mxCell id="0" />
        <mxCell id="1" parent="0" />
        <mxCell id="tWvxPobddHoEqQ1ig2QX-198" value="" style="rounded=0;whiteSpace=wrap;html=1;fillColor=#dae8fc;strokeColor=#6c8ebf;" vertex="1" parent="1">
          <mxGeometry x="1090" y="1140" width="10" height="280" as="geometry" />
        </mxCell>
        <mxCell id="tWvxPobddHoEqQ1ig2QX-122" value="" style="rounded=0;whiteSpace=wrap;html=1;fillColor=none;strokeColor=#FF0000;strokeWidth=2;fontSize=14;" vertex="1" parent="1">
          <mxGeometry x="-80" y="1190" width="1210" height="160" as="geometry" />
        </mxCell>
        <mxCell id="tWvxPobddHoEqQ1ig2QX-201" value="" style="rounded=0;whiteSpace=wrap;html=1;fillColor=#dae8fc;strokeColor=#6c8ebf;" vertex="1" parent="1">
          <mxGeometry x="1050" y="740" width="10" height="40" as="geometry" />
        </mxCell>
        <mxCell id="tWvxPobddHoEqQ1ig2QX-200" value="" style="rounded=0;whiteSpace=wrap;html=1;fillColor=#dae8fc;strokeColor=#6c8ebf;" vertex="1" parent="1">
          <mxGeometry x="1355" y="1940" width="10" height="40" as="geometry" />
        </mxCell>
        <mxCell id="tWvxPobddHoEqQ1ig2QX-199" value="" style="rounded=0;whiteSpace=wrap;html=1;fillColor=#dae8fc;strokeColor=#6c8ebf;" vertex="1" parent="1">
          <mxGeometry x="1245" y="1620" width="10" height="230" as="geometry" />
        </mxCell>
        <mxCell id="tWvxPobddHoEqQ1ig2QX-197" value="" style="rounded=0;whiteSpace=wrap;html=1;fillColor=#dae8fc;strokeColor=#6c8ebf;" vertex="1" parent="1">
          <mxGeometry x="930" y="870" width="10" height="1190" as="geometry" />
        </mxCell>
        <mxCell id="tWvxPobddHoEqQ1ig2QX-196" value="" style="rounded=0;whiteSpace=wrap;html=1;fillColor=#dae8fc;strokeColor=#6c8ebf;" vertex="1" parent="1">
          <mxGeometry x="740.17" y="310" width="10" height="1510" as="geometry" />
        </mxCell>
        <mxCell id="tWvxPobddHoEqQ1ig2QX-195" value="" style="rounded=0;whiteSpace=wrap;html=1;fillColor=#dae8fc;strokeColor=#6c8ebf;" vertex="1" parent="1">
          <mxGeometry x="500.17" y="250" width="10" height="1780" as="geometry" />
        </mxCell>
        <mxCell id="tWvxPobddHoEqQ1ig2QX-193" value="" style="rounded=0;whiteSpace=wrap;html=1;fillColor=#dae8fc;strokeColor=#6c8ebf;" vertex="1" parent="1">
          <mxGeometry x="-5" y="525" width="10" height="1575" as="geometry" />
        </mxCell>
        <mxCell id="tWvxPobddHoEqQ1ig2QX-192" value="" style="rounded=0;whiteSpace=wrap;html=1;fillColor=#dae8fc;strokeColor=#6c8ebf;" vertex="1" parent="1">
          <mxGeometry x="220" y="220" width="10" height="1750" as="geometry" />
        </mxCell>
        <mxCell id="tWvxPobddHoEqQ1ig2QX-191" value="" style="rounded=0;whiteSpace=wrap;html=1;fillColor=#dae8fc;strokeColor=#6c8ebf;" vertex="1" parent="1">
          <mxGeometry x="-190" y="150" width="10" height="880" as="geometry" />
        </mxCell>
        <mxCell id="tWvxPobddHoEqQ1ig2QX-189" value="" style="rounded=0;whiteSpace=wrap;html=1;fillColor=#dae8fc;strokeColor=#6c8ebf;" vertex="1" parent="1">
          <mxGeometry x="-365" y="150" width="10" height="1490" as="geometry" />
        </mxCell>
        <mxCell id="tWvxPobddHoEqQ1ig2QX-171" value="" style="rounded=0;whiteSpace=wrap;html=1;fillColor=none;strokeColor=#FF0000;strokeWidth=2;fontSize=14;" vertex="1" parent="1">
          <mxGeometry x="-80" y="1370" width="1210" height="160" as="geometry" />
        </mxCell>
        <mxCell id="tWvxPobddHoEqQ1ig2QX-153" value="" style="rounded=0;whiteSpace=wrap;html=1;fillColor=none;strokeColor=#FF0000;strokeWidth=2;fontSize=14;" vertex="1" parent="1">
          <mxGeometry x="-25" y="1660" width="1300" height="240" as="geometry" />
        </mxCell>
        <mxCell id="tWvxPobddHoEqQ1ig2QX-93" value="" style="rounded=0;whiteSpace=wrap;html=1;fillColor=none;strokeColor=#FF0000;strokeWidth=2;fontSize=14;" vertex="1" parent="1">
          <mxGeometry x="-420" y="420" width="1510" height="640" as="geometry" />
        </mxCell>
        <mxCell id="tWvxPobddHoEqQ1ig2QX-89" value="" style="rounded=0;whiteSpace=wrap;html=1;fillColor=none;strokeColor=#FF0000;strokeWidth=2;fontSize=14;" vertex="1" parent="1">
          <mxGeometry x="-400" y="660" width="1470" height="380" as="geometry" />
        </mxCell>
        <mxCell id="tWvxPobddHoEqQ1ig2QX-72" style="edgeStyle=orthogonalEdgeStyle;rounded=0;orthogonalLoop=1;jettySize=auto;html=1;curved=0;fontSize=14;" edge="1" parent="1">
          <mxGeometry relative="1" as="geometry">
            <mxPoint x="-0.409090909090537" y="709.9999999999998" as="sourcePoint" />
            <mxPoint x="744.6699999999996" y="709.9999999999998" as="targetPoint" />
            <Array as="points">
              <mxPoint x="570" y="710" />
              <mxPoint x="570" y="710" />
            </Array>
          </mxGeometry>
        </mxCell>
        <mxCell id="tWvxPobddHoEqQ1ig2QX-74" value="updatelistingStatus(listingID)" style="edgeLabel;html=1;align=center;verticalAlign=middle;resizable=0;points=[];fontSize=14;" vertex="1" connectable="0" parent="tWvxPobddHoEqQ1ig2QX-72">
          <mxGeometry x="-0.2966" y="2" relative="1" as="geometry">
            <mxPoint x="88" y="-8" as="offset" />
          </mxGeometry>
        </mxCell>
        <mxCell id="tWvxPobddHoEqQ1ig2QX-1" value=": CreateListingScreen" style="shape=umlLifeline;perimeter=lifelinePerimeter;whiteSpace=wrap;html=1;container=1;dropTarget=0;collapsible=0;recursiveResize=0;outlineConnect=0;portConstraint=eastwest;newEdgeStyle={&quot;curved&quot;:0,&quot;rounded&quot;:0};fillColor=#dae8fc;strokeColor=#000066;fontSize=14;" vertex="1" parent="1">
          <mxGeometry x="-90" y="450" width="180" height="1710" as="geometry" />
        </mxCell>
        <mxCell id="tWvxPobddHoEqQ1ig2QX-10" style="edgeStyle=orthogonalEdgeStyle;rounded=0;orthogonalLoop=1;jettySize=auto;html=1;curved=0;fontSize=14;" edge="1" parent="1">
          <mxGeometry relative="1" as="geometry">
            <mxPoint x="-359.9964705882351" y="150" as="sourcePoint" />
            <mxPoint x="-184.82000000000045" y="150" as="targetPoint" />
          </mxGeometry>
        </mxCell>
        <mxCell id="tWvxPobddHoEqQ1ig2QX-11" value="Create Listing" style="edgeLabel;html=1;align=center;verticalAlign=middle;resizable=0;points=[];fontSize=14;" vertex="1" connectable="0" parent="tWvxPobddHoEqQ1ig2QX-10">
          <mxGeometry x="0.1051" y="2" relative="1" as="geometry">
            <mxPoint x="-7" y="-8" as="offset" />
          </mxGeometry>
        </mxCell>
        <mxCell id="tWvxPobddHoEqQ1ig2QX-2" value="" style="shape=umlLifeline;perimeter=lifelinePerimeter;whiteSpace=wrap;html=1;container=1;dropTarget=0;collapsible=0;recursiveResize=0;outlineConnect=0;portConstraint=eastwest;newEdgeStyle={&quot;curved&quot;:0,&quot;rounded&quot;:0};participant=umlActor;fontSize=15;" vertex="1" parent="1">
          <mxGeometry x="-370" y="50" width="20" height="1990" as="geometry" />
        </mxCell>
        <mxCell id="tWvxPobddHoEqQ1ig2QX-4" value=": Listing" style="shape=umlLifeline;perimeter=lifelinePerimeter;whiteSpace=wrap;html=1;container=1;dropTarget=0;collapsible=0;recursiveResize=0;outlineConnect=0;portConstraint=eastwest;newEdgeStyle={&quot;curved&quot;:0,&quot;rounded&quot;:0};fillColor=#dae8fc;strokeColor=#000066;fontSize=14;" vertex="1" parent="1">
          <mxGeometry x="690.17" y="50" width="110" height="2110" as="geometry" />
        </mxCell>
        <mxCell id="tWvxPobddHoEqQ1ig2QX-5" value=": Photo" style="shape=umlLifeline;perimeter=lifelinePerimeter;whiteSpace=wrap;html=1;container=1;dropTarget=0;collapsible=0;recursiveResize=0;outlineConnect=0;portConstraint=eastwest;newEdgeStyle={&quot;curved&quot;:0,&quot;rounded&quot;:0};fillColor=#dae8fc;strokeColor=#000066;fontSize=14;" vertex="1" parent="1">
          <mxGeometry x="1305" y="1800" width="110" height="360" as="geometry" />
        </mxCell>
        <mxCell id="tWvxPobddHoEqQ1ig2QX-18" style="edgeStyle=orthogonalEdgeStyle;rounded=0;orthogonalLoop=1;jettySize=auto;html=1;curved=0;dashed=1;fontSize=14;" edge="1" parent="1" target="tWvxPobddHoEqQ1ig2QX-36">
          <mxGeometry relative="1" as="geometry">
            <mxPoint x="504.6699999999995" y="280.0000000000001" as="sourcePoint" />
            <mxPoint x="224.42000000000007" y="280" as="targetPoint" />
            <Array as="points">
              <mxPoint x="505" y="281" />
            </Array>
          </mxGeometry>
        </mxCell>
        <mxCell id="tWvxPobddHoEqQ1ig2QX-19" value="return List &amp;lt;Listing&amp;gt;" style="edgeLabel;html=1;align=center;verticalAlign=middle;resizable=0;points=[];fontSize=14;" vertex="1" connectable="0" parent="tWvxPobddHoEqQ1ig2QX-18">
          <mxGeometry x="0.2491" y="1" relative="1" as="geometry">
            <mxPoint x="21" y="-11" as="offset" />
          </mxGeometry>
        </mxCell>
        <mxCell id="tWvxPobddHoEqQ1ig2QX-6" value=": DB Manager" style="shape=umlLifeline;perimeter=lifelinePerimeter;whiteSpace=wrap;html=1;container=1;dropTarget=0;collapsible=0;recursiveResize=0;outlineConnect=0;portConstraint=eastwest;newEdgeStyle={&quot;curved&quot;:0,&quot;rounded&quot;:0};fillColor=#dae8fc;strokeColor=#000066;fontSize=14;" vertex="1" parent="1">
          <mxGeometry x="450.17" y="50" width="110" height="2110" as="geometry" />
        </mxCell>
        <mxCell id="tWvxPobddHoEqQ1ig2QX-7" value=": Message" style="shape=umlLifeline;perimeter=lifelinePerimeter;whiteSpace=wrap;html=1;container=1;dropTarget=0;collapsible=0;recursiveResize=0;outlineConnect=0;portConstraint=eastwest;newEdgeStyle={&quot;curved&quot;:0,&quot;rounded&quot;:0};fillColor=#dae8fc;strokeColor=#000066;fontSize=14;" vertex="1" parent="1">
          <mxGeometry x="880" y="810" width="110" height="1350" as="geometry" />
        </mxCell>
        <mxCell id="tWvxPobddHoEqQ1ig2QX-8" value=": Location" style="shape=umlLifeline;perimeter=lifelinePerimeter;whiteSpace=wrap;html=1;container=1;dropTarget=0;collapsible=0;recursiveResize=0;outlineConnect=0;portConstraint=eastwest;newEdgeStyle={&quot;curved&quot;:0,&quot;rounded&quot;:0};fillColor=#dae8fc;strokeColor=#000066;fontSize=14;" vertex="1" parent="1">
          <mxGeometry x="1390" y="50" width="110" height="2110" as="geometry" />
        </mxCell>
        <mxCell id="tWvxPobddHoEqQ1ig2QX-14" style="edgeStyle=orthogonalEdgeStyle;rounded=0;orthogonalLoop=1;jettySize=auto;html=1;curved=0;fontSize=14;" edge="1" parent="1">
          <mxGeometry relative="1" as="geometry">
            <mxPoint x="-185.5526315789475" y="220.00000000000023" as="sourcePoint" />
            <mxPoint x="224.67000000000007" y="220.09090909090855" as="targetPoint" />
            <Array as="points">
              <mxPoint x="90" y="220" />
              <mxPoint x="90" y="220" />
            </Array>
          </mxGeometry>
        </mxCell>
        <mxCell id="tWvxPobddHoEqQ1ig2QX-15" value="initiateListingCreation()" style="edgeLabel;html=1;align=center;verticalAlign=middle;resizable=0;points=[];fontSize=14;" vertex="1" connectable="0" parent="tWvxPobddHoEqQ1ig2QX-14">
          <mxGeometry x="-0.165" relative="1" as="geometry">
            <mxPoint x="84" y="-10" as="offset" />
          </mxGeometry>
        </mxCell>
        <mxCell id="tWvxPobddHoEqQ1ig2QX-9" value=": MainScreen" style="shape=umlLifeline;perimeter=lifelinePerimeter;whiteSpace=wrap;html=1;container=1;dropTarget=0;collapsible=0;recursiveResize=0;outlineConnect=0;portConstraint=eastwest;newEdgeStyle={&quot;curved&quot;:0,&quot;rounded&quot;:0};fillColor=#dae8fc;strokeColor=#000066;fontSize=14;" vertex="1" parent="1">
          <mxGeometry x="-240" y="50" width="110" height="1990" as="geometry" />
        </mxCell>
        <mxCell id="tWvxPobddHoEqQ1ig2QX-12" style="edgeStyle=orthogonalEdgeStyle;rounded=0;orthogonalLoop=1;jettySize=auto;html=1;curved=0;fontSize=14;" edge="1" parent="1">
          <mxGeometry relative="1" as="geometry">
            <mxPoint x="-185.24074074074042" y="179.99703703703707" as="sourcePoint" />
            <mxPoint x="-185.36956521739125" y="200.00000000000023" as="targetPoint" />
            <Array as="points">
              <mxPoint x="-50" y="180" />
              <mxPoint x="-50" y="200" />
            </Array>
          </mxGeometry>
        </mxCell>
        <mxCell id="tWvxPobddHoEqQ1ig2QX-13" value="onCreateListingClicked()" style="edgeLabel;html=1;align=center;verticalAlign=middle;resizable=0;points=[];fontSize=14;" vertex="1" connectable="0" parent="tWvxPobddHoEqQ1ig2QX-12">
          <mxGeometry x="0.485" y="-1" relative="1" as="geometry">
            <mxPoint x="20" y="-29" as="offset" />
          </mxGeometry>
        </mxCell>
        <mxCell id="tWvxPobddHoEqQ1ig2QX-20" style="edgeStyle=orthogonalEdgeStyle;rounded=0;orthogonalLoop=1;jettySize=auto;html=1;curved=0;fontSize=14;" edge="1" parent="1">
          <mxGeometry relative="1" as="geometry">
            <mxPoint x="225.11444444444433" y="310" as="sourcePoint" />
            <mxPoint x="744.67" y="310" as="targetPoint" />
            <Array as="points">
              <mxPoint x="370.16999999999996" y="310" />
              <mxPoint x="370.16999999999996" y="310" />
            </Array>
          </mxGeometry>
        </mxCell>
        <mxCell id="tWvxPobddHoEqQ1ig2QX-21" value="filterActiveListings()" style="edgeLabel;html=1;align=center;verticalAlign=middle;resizable=0;points=[];fontSize=14;" vertex="1" connectable="0" parent="tWvxPobddHoEqQ1ig2QX-20">
          <mxGeometry x="0.2911" y="-1" relative="1" as="geometry">
            <mxPoint x="40" y="-11" as="offset" />
          </mxGeometry>
        </mxCell>
        <mxCell id="tWvxPobddHoEqQ1ig2QX-24" style="edgeStyle=orthogonalEdgeStyle;rounded=0;orthogonalLoop=1;jettySize=auto;html=1;curved=0;fontSize=14;" edge="1" parent="1">
          <mxGeometry relative="1" as="geometry">
            <mxPoint x="224.3366666666665" y="380" as="sourcePoint" />
            <mxPoint x="224.3366666666665" y="400" as="targetPoint" />
            <Array as="points">
              <mxPoint x="410" y="380" />
              <mxPoint x="410" y="400" />
            </Array>
          </mxGeometry>
        </mxCell>
        <mxCell id="tWvxPobddHoEqQ1ig2QX-25" value="checkListingLimit(activeListings)" style="edgeLabel;html=1;align=center;verticalAlign=middle;resizable=0;points=[];fontSize=14;" vertex="1" connectable="0" parent="tWvxPobddHoEqQ1ig2QX-24">
          <mxGeometry x="-0.5557" y="2" relative="1" as="geometry">
            <mxPoint x="19" y="-13" as="offset" />
          </mxGeometry>
        </mxCell>
        <mxCell id="tWvxPobddHoEqQ1ig2QX-37" style="edgeStyle=orthogonalEdgeStyle;rounded=0;orthogonalLoop=1;jettySize=auto;html=1;curved=0;fontSize=14;" edge="1" parent="1">
          <mxGeometry relative="1" as="geometry">
            <mxPoint x="225.27784313725456" y="249.99960784313737" as="sourcePoint" />
            <mxPoint x="504.66999999999996" y="249.99960784313737" as="targetPoint" />
            <Array as="points">
              <mxPoint x="440.16999999999996" y="249.98000000000002" />
              <mxPoint x="440.16999999999996" y="249.98000000000002" />
            </Array>
          </mxGeometry>
        </mxCell>
        <mxCell id="tWvxPobddHoEqQ1ig2QX-38" value="getListingsForOwner(ownerID)" style="edgeLabel;html=1;align=center;verticalAlign=middle;resizable=0;points=[];fontSize=14;" vertex="1" connectable="0" parent="tWvxPobddHoEqQ1ig2QX-37">
          <mxGeometry x="-0.1679" y="1" relative="1" as="geometry">
            <mxPoint x="9" y="-9" as="offset" />
          </mxGeometry>
        </mxCell>
        <mxCell id="tWvxPobddHoEqQ1ig2QX-66" style="edgeStyle=orthogonalEdgeStyle;rounded=0;orthogonalLoop=1;jettySize=auto;html=1;curved=0;fontSize=14;" edge="1" parent="1">
          <mxGeometry relative="1" as="geometry">
            <mxPoint x="224.67000000000007" y="640" as="sourcePoint" />
            <mxPoint x="-0.552631578947512" y="640" as="targetPoint" />
            <Array as="points">
              <mxPoint x="50" y="640" />
              <mxPoint x="50" y="640" />
            </Array>
          </mxGeometry>
        </mxCell>
        <mxCell id="tWvxPobddHoEqQ1ig2QX-67" value="showArchiveOptions(List&amp;lt;Listing&amp;gt;)" style="edgeLabel;html=1;align=center;verticalAlign=middle;resizable=0;points=[];fontSize=14;" vertex="1" connectable="0" parent="tWvxPobddHoEqQ1ig2QX-66">
          <mxGeometry x="0.3636" relative="1" as="geometry">
            <mxPoint x="39" y="-15" as="offset" />
          </mxGeometry>
        </mxCell>
        <mxCell id="tWvxPobddHoEqQ1ig2QX-36" value=": ManageCreateListing" style="shape=umlLifeline;perimeter=lifelinePerimeter;whiteSpace=wrap;html=1;container=1;dropTarget=0;collapsible=0;recursiveResize=0;outlineConnect=0;portConstraint=eastwest;newEdgeStyle={&quot;curved&quot;:0,&quot;rounded&quot;:0};fillColor=#dae8fc;strokeColor=#000066;fontSize=14;" vertex="1" parent="1">
          <mxGeometry x="120.17" y="50" width="210" height="2110" as="geometry" />
        </mxCell>
        <mxCell id="tWvxPobddHoEqQ1ig2QX-39" style="edgeStyle=orthogonalEdgeStyle;rounded=0;orthogonalLoop=1;jettySize=auto;html=1;curved=0;dashed=1;fontSize=14;" edge="1" parent="1">
          <mxGeometry relative="1" as="geometry">
            <mxPoint x="744.67" y="341" as="sourcePoint" />
            <mxPoint x="224.9007692307695" y="339.9999999999998" as="targetPoint" />
            <Array as="points">
              <mxPoint x="509.16999999999996" y="341" />
              <mxPoint x="509.16999999999996" y="340" />
            </Array>
          </mxGeometry>
        </mxCell>
        <mxCell id="tWvxPobddHoEqQ1ig2QX-40" value="return List &amp;lt;Listing&amp;gt;" style="edgeLabel;html=1;align=center;verticalAlign=middle;resizable=0;points=[];fontSize=14;" vertex="1" connectable="0" parent="tWvxPobddHoEqQ1ig2QX-39">
          <mxGeometry x="0.2491" y="1" relative="1" as="geometry">
            <mxPoint x="180" y="-11" as="offset" />
          </mxGeometry>
        </mxCell>
        <mxCell id="tWvxPobddHoEqQ1ig2QX-42" value="" style="endArrow=classic;html=1;rounded=0;fontSize=14;" edge="1" parent="1">
          <mxGeometry width="50" height="50" relative="1" as="geometry">
            <mxPoint x="220" y="530" as="sourcePoint" />
            <mxPoint x="-0.409090909090537" y="530" as="targetPoint" />
          </mxGeometry>
        </mxCell>
        <mxCell id="tWvxPobddHoEqQ1ig2QX-43" value="displayCreateListingScreen()" style="edgeLabel;html=1;align=center;verticalAlign=middle;resizable=0;points=[];fontSize=14;" vertex="1" connectable="0" parent="tWvxPobddHoEqQ1ig2QX-42">
          <mxGeometry x="-0.2564" y="-1" relative="1" as="geometry">
            <mxPoint x="-29" y="-9" as="offset" />
          </mxGeometry>
        </mxCell>
        <mxCell id="tWvxPobddHoEqQ1ig2QX-44" value="" style="endArrow=classic;html=1;rounded=0;dashed=1;fontSize=14;" edge="1" parent="1">
          <mxGeometry width="50" height="50" relative="1" as="geometry">
            <mxPoint x="224.67000000000007" y="470" as="sourcePoint" />
            <mxPoint x="100" y="470" as="targetPoint" />
          </mxGeometry>
        </mxCell>
        <mxCell id="tWvxPobddHoEqQ1ig2QX-46" value="Owner" style="edgeLabel;html=1;align=center;verticalAlign=middle;resizable=0;points=[];fontSize=14;" vertex="1" connectable="0" parent="1">
          <mxGeometry x="-359.9964705882351" y="40" as="geometry">
            <mxPoint as="offset" />
          </mxGeometry>
        </mxCell>
        <mxCell id="tWvxPobddHoEqQ1ig2QX-47" style="edgeStyle=orthogonalEdgeStyle;rounded=0;orthogonalLoop=1;jettySize=auto;html=1;curved=0;fontSize=14;dashed=1;" edge="1" parent="1">
          <mxGeometry relative="1" as="geometry">
            <mxPoint x="223.85181818181854" y="820.0909090909086" as="sourcePoint" />
            <mxPoint x="860" y="820" as="targetPoint" />
            <Array as="points">
              <mxPoint x="810" y="820" />
              <mxPoint x="810" y="820" />
            </Array>
          </mxGeometry>
        </mxCell>
        <mxCell id="tWvxPobddHoEqQ1ig2QX-48" value="&lt;font&gt;&lt;span style=&quot;color: rgb(32, 33, 34); font-family: sans-serif; text-align: left; text-wrap-mode: wrap;&quot;&gt;«create&lt;/span&gt;&lt;span style=&quot;color: rgb(32, 33, 34); font-family: sans-serif; text-align: left; text-wrap-mode: wrap;&quot;&gt;»&lt;/span&gt;&lt;/font&gt;" style="edgeLabel;html=1;align=center;verticalAlign=middle;resizable=0;points=[];fontSize=14;" vertex="1" connectable="0" parent="tWvxPobddHoEqQ1ig2QX-47">
          <mxGeometry x="0.2911" y="-1" relative="1" as="geometry">
            <mxPoint x="-285" y="-11" as="offset" />
          </mxGeometry>
        </mxCell>
        <mxCell id="tWvxPobddHoEqQ1ig2QX-49" value="&lt;font&gt;&lt;span style=&quot;color: rgb(32, 33, 34); font-family: sans-serif; text-align: left; text-wrap-mode: wrap;&quot;&gt;«create&lt;/span&gt;&lt;span style=&quot;color: rgb(32, 33, 34); font-family: sans-serif; text-align: left; text-wrap-mode: wrap;&quot;&gt;»&lt;/span&gt;&lt;/font&gt;" style="edgeLabel;html=1;align=center;verticalAlign=middle;resizable=0;points=[];fontSize=14;" vertex="1" connectable="0" parent="1">
          <mxGeometry x="460.0044444444444" y="590" as="geometry">
            <mxPoint x="-298" y="-132" as="offset" />
          </mxGeometry>
        </mxCell>
        <mxCell id="tWvxPobddHoEqQ1ig2QX-50" style="edgeStyle=orthogonalEdgeStyle;rounded=0;orthogonalLoop=1;jettySize=auto;html=1;curved=0;fontSize=14;" edge="1" parent="1">
          <mxGeometry relative="1" as="geometry">
            <mxPoint x="224.76090909090908" y="869.9999999999998" as="sourcePoint" />
            <mxPoint x="924.5" y="869.9999999999998" as="targetPoint" />
            <Array as="points">
              <mxPoint x="760" y="870" />
              <mxPoint x="760" y="870" />
            </Array>
          </mxGeometry>
        </mxCell>
        <mxCell id="tWvxPobddHoEqQ1ig2QX-51" value="createMessage(listingID,&quot;ARCHIVED&quot;)" style="edgeLabel;html=1;align=center;verticalAlign=middle;resizable=0;points=[];fontSize=14;" vertex="1" connectable="0" parent="tWvxPobddHoEqQ1ig2QX-50">
          <mxGeometry x="0.2911" y="-1" relative="1" as="geometry">
            <mxPoint x="-27" y="-11" as="offset" />
          </mxGeometry>
        </mxCell>
        <mxCell id="tWvxPobddHoEqQ1ig2QX-52" value="" style="endArrow=classic;html=1;rounded=0;entryX=0.519;entryY=0.475;entryDx=0;entryDy=0;entryPerimeter=0;fontSize=14;" edge="1" parent="1">
          <mxGeometry width="50" height="50" relative="1" as="geometry">
            <mxPoint x="920.5400000000001" y="900" as="sourcePoint" />
            <mxPoint x="-0.5400000000001546" y="900" as="targetPoint" />
          </mxGeometry>
        </mxCell>
        <mxCell id="tWvxPobddHoEqQ1ig2QX-53" value="displayMessage()" style="edgeLabel;html=1;align=center;verticalAlign=middle;resizable=0;points=[];fontSize=14;" vertex="1" connectable="0" parent="tWvxPobddHoEqQ1ig2QX-52">
          <mxGeometry x="-0.2564" y="-1" relative="1" as="geometry">
            <mxPoint x="-452" y="-9" as="offset" />
          </mxGeometry>
        </mxCell>
        <mxCell id="tWvxPobddHoEqQ1ig2QX-54" style="edgeStyle=orthogonalEdgeStyle;rounded=0;orthogonalLoop=1;jettySize=auto;html=1;curved=0;fontSize=14;dashed=1;" edge="1" parent="1">
          <mxGeometry relative="1" as="geometry">
            <mxPoint x="230" y="1100" as="sourcePoint" />
            <mxPoint x="1010" y="1100" as="targetPoint" />
            <Array as="points">
              <mxPoint x="815" y="1100" />
              <mxPoint x="815" y="1100" />
            </Array>
          </mxGeometry>
        </mxCell>
        <mxCell id="tWvxPobddHoEqQ1ig2QX-55" value="&lt;font&gt;&lt;span style=&quot;color: rgb(32, 33, 34); font-family: sans-serif; text-align: left; text-wrap-mode: wrap;&quot;&gt;«create&lt;/span&gt;&lt;span style=&quot;color: rgb(32, 33, 34); font-family: sans-serif; text-align: left; text-wrap-mode: wrap;&quot;&gt;»&lt;/span&gt;&lt;/font&gt;" style="edgeLabel;html=1;align=center;verticalAlign=middle;resizable=0;points=[];fontSize=14;" vertex="1" connectable="0" parent="tWvxPobddHoEqQ1ig2QX-54">
          <mxGeometry x="0.2911" y="-1" relative="1" as="geometry">
            <mxPoint x="-165" y="-11" as="offset" />
          </mxGeometry>
        </mxCell>
        <mxCell id="tWvxPobddHoEqQ1ig2QX-56" value="" style="endArrow=classic;html=1;rounded=0;fontSize=14;" edge="1" parent="1">
          <mxGeometry width="50" height="50" relative="1" as="geometry">
            <mxPoint x="1095" y="1140" as="sourcePoint" />
            <mxPoint x="-0.9285714285715585" y="1140" as="targetPoint" />
          </mxGeometry>
        </mxCell>
        <mxCell id="tWvxPobddHoEqQ1ig2QX-57" value="displayListingForm()" style="edgeLabel;html=1;align=center;verticalAlign=middle;resizable=0;points=[];fontSize=14;" vertex="1" connectable="0" parent="tWvxPobddHoEqQ1ig2QX-56">
          <mxGeometry x="-0.2564" y="-1" relative="1" as="geometry">
            <mxPoint x="-548" y="-9" as="offset" />
          </mxGeometry>
        </mxCell>
        <mxCell id="tWvxPobddHoEqQ1ig2QX-62" style="edgeStyle=orthogonalEdgeStyle;rounded=0;orthogonalLoop=1;jettySize=auto;html=1;curved=0;fontSize=14;" edge="1" parent="1">
          <mxGeometry relative="1" as="geometry">
            <mxPoint x="225.34741935483885" y="588.75" as="sourcePoint" />
            <mxPoint x="504.6700000000001" y="588.75" as="targetPoint" />
            <Array as="points">
              <mxPoint x="350" y="588.75" />
              <mxPoint x="350" y="588.75" />
            </Array>
          </mxGeometry>
        </mxCell>
        <mxCell id="tWvxPobddHoEqQ1ig2QX-63" value="getListingsForOwner(ownerID)" style="edgeLabel;html=1;align=center;verticalAlign=middle;resizable=0;points=[];fontSize=14;" vertex="1" connectable="0" parent="tWvxPobddHoEqQ1ig2QX-62">
          <mxGeometry x="-0.1679" y="1" relative="1" as="geometry">
            <mxPoint x="9" y="-9" as="offset" />
          </mxGeometry>
        </mxCell>
        <mxCell id="tWvxPobddHoEqQ1ig2QX-64" style="edgeStyle=orthogonalEdgeStyle;rounded=0;orthogonalLoop=1;jettySize=auto;html=1;curved=0;dashed=1;fontSize=14;" edge="1" parent="1">
          <mxGeometry relative="1" as="geometry">
            <mxPoint x="499.6699999999995" y="620.0000000000001" as="sourcePoint" />
            <mxPoint x="224.8004347826086" y="621.0434782608695" as="targetPoint" />
            <Array as="points">
              <mxPoint x="500" y="621" />
            </Array>
          </mxGeometry>
        </mxCell>
        <mxCell id="tWvxPobddHoEqQ1ig2QX-65" value="return List &amp;lt;Listing&amp;gt;" style="edgeLabel;html=1;align=center;verticalAlign=middle;resizable=0;points=[];fontSize=14;" vertex="1" connectable="0" parent="tWvxPobddHoEqQ1ig2QX-64">
          <mxGeometry x="0.2491" y="1" relative="1" as="geometry">
            <mxPoint x="28" y="-11" as="offset" />
          </mxGeometry>
        </mxCell>
        <mxCell id="tWvxPobddHoEqQ1ig2QX-70" style="edgeStyle=orthogonalEdgeStyle;rounded=0;orthogonalLoop=1;jettySize=auto;html=1;curved=0;fontSize=14;" edge="1" parent="1" target="tWvxPobddHoEqQ1ig2QX-1">
          <mxGeometry relative="1" as="geometry">
            <mxPoint x="-360" y="690" as="sourcePoint" />
            <mxPoint x="-184.82000000000045" y="750" as="targetPoint" />
            <Array as="points">
              <mxPoint x="-360" y="690" />
            </Array>
          </mxGeometry>
        </mxCell>
        <mxCell id="tWvxPobddHoEqQ1ig2QX-71" value="archiveListing(listingID)" style="edgeLabel;html=1;align=center;verticalAlign=middle;resizable=0;points=[];fontSize=14;" vertex="1" connectable="0" parent="tWvxPobddHoEqQ1ig2QX-70">
          <mxGeometry x="0.1051" y="2" relative="1" as="geometry">
            <mxPoint x="-7" y="-8" as="offset" />
          </mxGeometry>
        </mxCell>
        <mxCell id="tWvxPobddHoEqQ1ig2QX-75" style="edgeStyle=orthogonalEdgeStyle;rounded=0;orthogonalLoop=1;jettySize=auto;html=1;curved=0;fontSize=14;" edge="1" parent="1">
          <mxGeometry relative="1" as="geometry">
            <mxPoint x="1054.4999999999995" y="769.9988235294118" as="sourcePoint" />
            <mxPoint x="504.49352941176494" y="769.9988235294118" as="targetPoint" />
            <Array as="points">
              <mxPoint x="900" y="769.94" />
              <mxPoint x="900" y="769.94" />
            </Array>
          </mxGeometry>
        </mxCell>
        <mxCell id="tWvxPobddHoEqQ1ig2QX-76" value="deleteAssociatedInterests(listingID)" style="edgeLabel;html=1;align=center;verticalAlign=middle;resizable=0;points=[];fontSize=14;" vertex="1" connectable="0" parent="tWvxPobddHoEqQ1ig2QX-75">
          <mxGeometry x="0.3636" relative="1" as="geometry">
            <mxPoint x="226" y="-10" as="offset" />
          </mxGeometry>
        </mxCell>
        <mxCell id="tWvxPobddHoEqQ1ig2QX-77" value=": Rental Interest" style="shape=umlLifeline;perimeter=lifelinePerimeter;whiteSpace=wrap;html=1;container=1;dropTarget=0;collapsible=0;recursiveResize=0;outlineConnect=0;portConstraint=eastwest;newEdgeStyle={&quot;curved&quot;:0,&quot;rounded&quot;:0};fillColor=#dae8fc;strokeColor=#000066;fontSize=14;" vertex="1" parent="1">
          <mxGeometry x="1000" y="50" width="110" height="2110" as="geometry" />
        </mxCell>
        <mxCell id="tWvxPobddHoEqQ1ig2QX-78" style="edgeStyle=orthogonalEdgeStyle;rounded=0;orthogonalLoop=1;jettySize=auto;html=1;curved=0;fontSize=14;" edge="1" parent="1">
          <mxGeometry relative="1" as="geometry">
            <mxPoint x="744.6700000000001" y="740" as="sourcePoint" />
            <mxPoint x="1054.5" y="740" as="targetPoint" />
            <Array as="points">
              <mxPoint x="870" y="740" />
              <mxPoint x="870" y="740" />
            </Array>
          </mxGeometry>
        </mxCell>
        <mxCell id="tWvxPobddHoEqQ1ig2QX-79" value="getRentalInterests(listingID)" style="edgeLabel;html=1;align=center;verticalAlign=middle;resizable=0;points=[];fontSize=14;" vertex="1" connectable="0" parent="tWvxPobddHoEqQ1ig2QX-78">
          <mxGeometry x="-0.2966" y="2" relative="1" as="geometry">
            <mxPoint x="57" y="-8" as="offset" />
          </mxGeometry>
        </mxCell>
        <mxCell id="tWvxPobddHoEqQ1ig2QX-80" style="edgeStyle=orthogonalEdgeStyle;rounded=0;orthogonalLoop=1;jettySize=auto;html=1;curved=0;dashed=1;fontSize=14;" edge="1" parent="1">
          <mxGeometry relative="1" as="geometry">
            <mxPoint x="504.6700000000001" y="790.0000000000002" as="sourcePoint" />
            <mxPoint x="225.23521739130456" y="790.0000000000002" as="targetPoint" />
            <Array as="points">
              <mxPoint x="450" y="790" />
              <mxPoint x="450" y="790" />
            </Array>
          </mxGeometry>
        </mxCell>
        <mxCell id="tWvxPobddHoEqQ1ig2QX-81" value="return" style="edgeLabel;html=1;align=center;verticalAlign=middle;resizable=0;points=[];fontSize=14;" vertex="1" connectable="0" parent="tWvxPobddHoEqQ1ig2QX-80">
          <mxGeometry x="0.3636" relative="1" as="geometry">
            <mxPoint x="39" y="-15" as="offset" />
          </mxGeometry>
        </mxCell>
        <mxCell id="tWvxPobddHoEqQ1ig2QX-3" value=": CreateListingForm" style="shape=umlLifeline;perimeter=lifelinePerimeter;whiteSpace=wrap;html=1;container=1;dropTarget=0;collapsible=0;recursiveResize=0;outlineConnect=0;portConstraint=eastwest;newEdgeStyle={&quot;curved&quot;:0,&quot;rounded&quot;:0};fillColor=#dae8fc;strokeColor=#000066;fontSize=14;" vertex="1" parent="1">
          <mxGeometry x="1020" y="1080" width="150" height="1080" as="geometry" />
        </mxCell>
        <mxCell id="tWvxPobddHoEqQ1ig2QX-82" style="edgeStyle=orthogonalEdgeStyle;rounded=0;orthogonalLoop=1;jettySize=auto;html=1;curved=0;fontSize=14;" edge="1" parent="1">
          <mxGeometry relative="1" as="geometry">
            <mxPoint x="-359.9964705882351" y="980" as="sourcePoint" />
            <mxPoint y="980" as="targetPoint" />
            <Array as="points">
              <mxPoint x="-110" y="980" />
              <mxPoint x="-110" y="980" />
            </Array>
          </mxGeometry>
        </mxCell>
        <mxCell id="tWvxPobddHoEqQ1ig2QX-83" value="closeArchivePopUp()" style="edgeLabel;html=1;align=center;verticalAlign=middle;resizable=0;points=[];fontSize=14;" vertex="1" connectable="0" parent="tWvxPobddHoEqQ1ig2QX-82">
          <mxGeometry x="0.1051" y="2" relative="1" as="geometry">
            <mxPoint x="71" y="-13" as="offset" />
          </mxGeometry>
        </mxCell>
        <mxCell id="tWvxPobddHoEqQ1ig2QX-84" style="edgeStyle=orthogonalEdgeStyle;rounded=0;orthogonalLoop=1;jettySize=auto;html=1;curved=0;fontSize=14;" edge="1" parent="1">
          <mxGeometry relative="1" as="geometry">
            <mxPoint x="0.0035294117648732026" y="1000" as="sourcePoint" />
            <mxPoint x="224.67000000000007" y="1001.0370370370367" as="targetPoint" />
            <Array as="points">
              <mxPoint y="1001" />
            </Array>
          </mxGeometry>
        </mxCell>
        <mxCell id="tWvxPobddHoEqQ1ig2QX-85" value="cancelListingCreation()" style="edgeLabel;html=1;align=center;verticalAlign=middle;resizable=0;points=[];fontSize=14;" vertex="1" connectable="0" parent="tWvxPobddHoEqQ1ig2QX-84">
          <mxGeometry x="0.1051" y="2" relative="1" as="geometry">
            <mxPoint x="-7" y="-8" as="offset" />
          </mxGeometry>
        </mxCell>
        <mxCell id="tWvxPobddHoEqQ1ig2QX-86" value="" style="endArrow=classic;html=1;rounded=0;dashed=1;fontSize=14;" edge="1" parent="1">
          <mxGeometry width="50" height="50" relative="1" as="geometry">
            <mxPoint x="224.67000000000053" y="1030" as="sourcePoint" />
            <mxPoint x="-186.03846153846143" y="1030" as="targetPoint" />
          </mxGeometry>
        </mxCell>
        <mxCell id="tWvxPobddHoEqQ1ig2QX-88" value="return to MainScreen" style="edgeLabel;html=1;align=center;verticalAlign=middle;resizable=0;points=[];fontSize=14;" vertex="1" connectable="0" parent="tWvxPobddHoEqQ1ig2QX-86">
          <mxGeometry x="-0.1981" y="-2" relative="1" as="geometry">
            <mxPoint x="-130" y="-8" as="offset" />
          </mxGeometry>
        </mxCell>
        <mxCell id="tWvxPobddHoEqQ1ig2QX-90" value="alt" style="rounded=0;whiteSpace=wrap;html=1;strokeColor=#FF0000;strokeWidth=2;fontColor=#FF0000;fontStyle=1;fontSize=14;" vertex="1" parent="1">
          <mxGeometry x="-400" y="660" width="50" height="20" as="geometry" />
        </mxCell>
        <mxCell id="tWvxPobddHoEqQ1ig2QX-92" value="" style="endArrow=none;dashed=1;html=1;strokeWidth=2;rounded=0;fillColor=#f8cecc;strokeColor=#FF0000;fontSize=14;" edge="1" parent="1">
          <mxGeometry width="50" height="50" relative="1" as="geometry">
            <mxPoint x="-400" y="930" as="sourcePoint" />
            <mxPoint x="1070" y="930" as="targetPoint" />
          </mxGeometry>
        </mxCell>
        <mxCell id="tWvxPobddHoEqQ1ig2QX-95" value="alt" style="rounded=0;whiteSpace=wrap;html=1;strokeColor=#FF0000;strokeWidth=2;fontColor=#FF0000;fontStyle=1;fontSize=14;" vertex="1" parent="1">
          <mxGeometry x="-420" y="420" width="50" height="20" as="geometry" />
        </mxCell>
        <mxCell id="tWvxPobddHoEqQ1ig2QX-97" value="[allowed]" style="text;html=1;align=center;verticalAlign=middle;resizable=0;points=[];autosize=1;strokeColor=none;fillColor=none;fontStyle=1;fontSize=14;" vertex="1" parent="1">
          <mxGeometry x="-335" y="440" width="80" height="30" as="geometry" />
        </mxCell>
        <mxCell id="tWvxPobddHoEqQ1ig2QX-98" value="[now allowed]" style="text;html=1;align=center;verticalAlign=middle;resizable=0;points=[];autosize=1;strokeColor=none;fillColor=none;fontStyle=1;fontSize=14;" vertex="1" parent="1">
          <mxGeometry x="-345" y="570" width="110" height="30" as="geometry" />
        </mxCell>
        <mxCell id="tWvxPobddHoEqQ1ig2QX-99" value="[user archives listing]" style="text;html=1;align=center;verticalAlign=middle;resizable=0;points=[];autosize=1;strokeColor=none;fillColor=none;fontStyle=1;fontSize=14;" vertex="1" parent="1">
          <mxGeometry x="-355" y="700" width="150" height="30" as="geometry" />
        </mxCell>
        <mxCell id="tWvxPobddHoEqQ1ig2QX-100" value="[user close without action]" style="text;html=1;align=center;verticalAlign=middle;resizable=0;points=[];autosize=1;strokeColor=none;fillColor=none;fontStyle=1;fontSize=14;" vertex="1" parent="1">
          <mxGeometry x="-360" y="940" width="180" height="30" as="geometry" />
        </mxCell>
        <mxCell id="tWvxPobddHoEqQ1ig2QX-101" style="edgeStyle=orthogonalEdgeStyle;rounded=0;orthogonalLoop=1;jettySize=auto;html=1;curved=0;fontSize=14;" edge="1" parent="1">
          <mxGeometry relative="1" as="geometry">
            <mxPoint x="-359.9964705882351" y="1170" as="sourcePoint" />
            <mxPoint y="1170" as="targetPoint" />
            <Array as="points">
              <mxPoint x="-110" y="1170" />
              <mxPoint x="-110" y="1170" />
            </Array>
          </mxGeometry>
        </mxCell>
        <mxCell id="tWvxPobddHoEqQ1ig2QX-102" value="Fill Form Fields &amp;amp; submitListingForm()" style="edgeLabel;html=1;align=center;verticalAlign=middle;resizable=0;points=[];fontSize=14;" vertex="1" connectable="0" parent="tWvxPobddHoEqQ1ig2QX-101">
          <mxGeometry x="0.1051" y="2" relative="1" as="geometry">
            <mxPoint x="-9" y="-13" as="offset" />
          </mxGeometry>
        </mxCell>
        <mxCell id="tWvxPobddHoEqQ1ig2QX-103" style="edgeStyle=orthogonalEdgeStyle;rounded=0;orthogonalLoop=1;jettySize=auto;html=1;curved=0;fontSize=14;" edge="1" parent="1">
          <mxGeometry relative="1" as="geometry">
            <mxPoint x="-4.5" y="1210" as="sourcePoint" />
            <mxPoint x="1090.000000000001" y="1210" as="targetPoint" />
            <Array as="points">
              <mxPoint x="765.5" y="1210" />
              <mxPoint x="765.5" y="1210" />
            </Array>
          </mxGeometry>
        </mxCell>
        <mxCell id="tWvxPobddHoEqQ1ig2QX-104" value="&lt;div style=&quot;text-align: left;&quot;&gt;&lt;span style=&quot;background-color: light-dark(#ffffff, var(--ge-dark-color, #121212)); text-wrap-mode: wrap;&quot;&gt;&lt;font face=&quot;sans-serif&quot; color=&quot;#202122&quot;&gt;validateRequiredFields()&lt;/font&gt;&lt;/span&gt;&lt;/div&gt;" style="edgeLabel;html=1;align=center;verticalAlign=middle;resizable=0;points=[];fontSize=14;" vertex="1" connectable="0" parent="tWvxPobddHoEqQ1ig2QX-103">
          <mxGeometry x="0.2911" y="-1" relative="1" as="geometry">
            <mxPoint x="-72" y="9" as="offset" />
          </mxGeometry>
        </mxCell>
        <mxCell id="tWvxPobddHoEqQ1ig2QX-108" style="edgeStyle=orthogonalEdgeStyle;rounded=0;orthogonalLoop=1;jettySize=auto;html=1;curved=0;fontSize=14;" edge="1" parent="1">
          <mxGeometry relative="1" as="geometry">
            <mxPoint y="1390" as="sourcePoint" />
            <mxPoint x="1095" y="1390" as="targetPoint" />
            <Array as="points">
              <mxPoint x="770" y="1390" />
              <mxPoint x="770" y="1390" />
            </Array>
          </mxGeometry>
        </mxCell>
        <mxCell id="tWvxPobddHoEqQ1ig2QX-109" value="&lt;div style=&quot;text-align: left;&quot;&gt;&lt;span style=&quot;background-color: light-dark(#ffffff, var(--ge-dark-color, #121212)); text-wrap-mode: wrap;&quot;&gt;&lt;font face=&quot;sans-serif&quot; color=&quot;#202122&quot;&gt;validateRoomateCompatibility()&lt;/font&gt;&lt;/span&gt;&lt;/div&gt;" style="edgeLabel;html=1;align=center;verticalAlign=middle;resizable=0;points=[];fontSize=14;" vertex="1" connectable="0" parent="tWvxPobddHoEqQ1ig2QX-108">
          <mxGeometry x="0.2911" y="-1" relative="1" as="geometry">
            <mxPoint x="-82" y="-11" as="offset" />
          </mxGeometry>
        </mxCell>
        <mxCell id="tWvxPobddHoEqQ1ig2QX-114" value="" style="endArrow=classic;html=1;rounded=0;dashed=1;fontSize=14;" edge="1" parent="1">
          <mxGeometry width="50" height="50" relative="1" as="geometry">
            <mxPoint x="1094.5" y="1240" as="sourcePoint" />
            <mxPoint x="230" y="1240" as="targetPoint" />
          </mxGeometry>
        </mxCell>
        <mxCell id="tWvxPobddHoEqQ1ig2QX-115" value="Valid Listing" style="edgeLabel;html=1;align=center;verticalAlign=middle;resizable=0;points=[];fontSize=14;" vertex="1" connectable="0" parent="tWvxPobddHoEqQ1ig2QX-114">
          <mxGeometry x="-0.2564" y="-1" relative="1" as="geometry">
            <mxPoint x="-452" y="-9" as="offset" />
          </mxGeometry>
        </mxCell>
        <mxCell id="tWvxPobddHoEqQ1ig2QX-117" value="" style="endArrow=none;dashed=1;html=1;strokeWidth=2;rounded=0;fillColor=#f8cecc;strokeColor=#FF0000;entryX=0.999;entryY=0.219;entryDx=0;entryDy=0;entryPerimeter=0;fontSize=14;" edge="1" parent="1" target="tWvxPobddHoEqQ1ig2QX-93">
          <mxGeometry width="50" height="50" relative="1" as="geometry">
            <mxPoint x="-420" y="560" as="sourcePoint" />
            <mxPoint x="1050" y="560" as="targetPoint" />
          </mxGeometry>
        </mxCell>
        <mxCell id="tWvxPobddHoEqQ1ig2QX-118" style="edgeStyle=orthogonalEdgeStyle;rounded=0;orthogonalLoop=1;jettySize=auto;html=1;curved=0;fontSize=14;" edge="1" parent="1">
          <mxGeometry relative="1" as="geometry">
            <mxPoint x="510.0015384615382" y="1280.0769230769229" as="sourcePoint" />
            <mxPoint x="930.37" y="1280.0769230769229" as="targetPoint" />
            <Array as="points">
              <mxPoint x="765.87" y="1280" />
              <mxPoint x="765.87" y="1280" />
            </Array>
          </mxGeometry>
        </mxCell>
        <mxCell id="tWvxPobddHoEqQ1ig2QX-119" value="createValidationMessage()" style="edgeLabel;html=1;align=center;verticalAlign=middle;resizable=0;points=[];fontSize=14;" vertex="1" connectable="0" parent="tWvxPobddHoEqQ1ig2QX-118">
          <mxGeometry x="0.2911" y="-1" relative="1" as="geometry">
            <mxPoint x="-151" y="-11" as="offset" />
          </mxGeometry>
        </mxCell>
        <mxCell id="tWvxPobddHoEqQ1ig2QX-120" value="" style="endArrow=classic;html=1;rounded=0;fontSize=14;" edge="1" parent="1">
          <mxGeometry width="50" height="50" relative="1" as="geometry">
            <mxPoint x="932.53" y="1300" as="sourcePoint" />
            <mxPoint x="7.477368421052488" y="1300" as="targetPoint" />
          </mxGeometry>
        </mxCell>
        <mxCell id="tWvxPobddHoEqQ1ig2QX-121" value="displayMessage()" style="edgeLabel;html=1;align=center;verticalAlign=middle;resizable=0;points=[];fontSize=14;" vertex="1" connectable="0" parent="tWvxPobddHoEqQ1ig2QX-120">
          <mxGeometry x="-0.2564" y="-1" relative="1" as="geometry">
            <mxPoint x="-249" y="-9" as="offset" />
          </mxGeometry>
        </mxCell>
        <mxCell id="tWvxPobddHoEqQ1ig2QX-123" value="" style="endArrow=none;dashed=1;html=1;strokeWidth=2;rounded=0;fillColor=#f8cecc;strokeColor=#FF0000;fontSize=14;exitX=0.001;exitY=0.439;exitDx=0;exitDy=0;exitPerimeter=0;" edge="1" parent="1" source="tWvxPobddHoEqQ1ig2QX-122">
          <mxGeometry width="50" height="50" relative="1" as="geometry">
            <mxPoint x="-30" y="1260" as="sourcePoint" />
            <mxPoint x="1130" y="1260" as="targetPoint" />
          </mxGeometry>
        </mxCell>
        <mxCell id="tWvxPobddHoEqQ1ig2QX-124" value="[valid listing]" style="text;html=1;align=center;verticalAlign=middle;resizable=0;points=[];autosize=1;strokeColor=none;fillColor=none;fontStyle=1;fontSize=14;" vertex="1" parent="1">
          <mxGeometry x="40" y="1220" width="100" height="30" as="geometry" />
        </mxCell>
        <mxCell id="tWvxPobddHoEqQ1ig2QX-125" value="[validation error]" style="text;html=1;align=center;verticalAlign=middle;resizable=0;points=[];autosize=1;strokeColor=none;fillColor=none;fontStyle=1;fontSize=14;" vertex="1" parent="1">
          <mxGeometry x="40" y="1270" width="120" height="30" as="geometry" />
        </mxCell>
        <mxCell id="tWvxPobddHoEqQ1ig2QX-126" value="alt" style="rounded=0;whiteSpace=wrap;html=1;strokeColor=#FF0000;strokeWidth=2;fontColor=#FF0000;fontStyle=1;fontSize=14;" vertex="1" parent="1">
          <mxGeometry x="-80" y="1190" width="50" height="20" as="geometry" />
        </mxCell>
        <mxCell id="tWvxPobddHoEqQ1ig2QX-127" style="edgeStyle=orthogonalEdgeStyle;rounded=0;orthogonalLoop=1;jettySize=auto;html=1;curved=0;dashed=1;fontSize=14;" edge="1" parent="1">
          <mxGeometry relative="1" as="geometry">
            <mxPoint x="0.04352941176487235" y="1330" as="sourcePoint" />
            <mxPoint x="224.71000000000006" y="1331.0370370370367" as="targetPoint" />
            <Array as="points">
              <mxPoint x="0.03999999999999915" y="1331" />
            </Array>
          </mxGeometry>
        </mxCell>
        <mxCell id="tWvxPobddHoEqQ1ig2QX-128" value="return" style="edgeLabel;html=1;align=center;verticalAlign=middle;resizable=0;points=[];fontSize=14;" vertex="1" connectable="0" parent="tWvxPobddHoEqQ1ig2QX-127">
          <mxGeometry x="0.1051" y="2" relative="1" as="geometry">
            <mxPoint x="-7" y="-8" as="offset" />
          </mxGeometry>
        </mxCell>
        <mxCell id="tWvxPobddHoEqQ1ig2QX-129" value=": UploadPhotoForm" style="shape=umlLifeline;perimeter=lifelinePerimeter;whiteSpace=wrap;html=1;container=1;dropTarget=0;collapsible=0;recursiveResize=0;outlineConnect=0;portConstraint=eastwest;newEdgeStyle={&quot;curved&quot;:0,&quot;rounded&quot;:0};fillColor=#dae8fc;strokeColor=#000066;fontSize=14;" vertex="1" parent="1">
          <mxGeometry x="1185" y="1560" width="130" height="600" as="geometry" />
        </mxCell>
        <mxCell id="tWvxPobddHoEqQ1ig2QX-130" style="edgeStyle=orthogonalEdgeStyle;rounded=0;orthogonalLoop=1;jettySize=auto;html=1;curved=0;fontSize=14;dashed=1;" edge="1" parent="1">
          <mxGeometry relative="1" as="geometry">
            <mxPoint x="235" y="1580" as="sourcePoint" />
            <mxPoint x="1185" y="1580" as="targetPoint" />
            <Array as="points">
              <mxPoint x="1185" y="1580" />
            </Array>
          </mxGeometry>
        </mxCell>
        <mxCell id="tWvxPobddHoEqQ1ig2QX-131" value="&lt;font&gt;&lt;span style=&quot;color: rgb(32, 33, 34); font-family: sans-serif; text-align: left; text-wrap-mode: wrap;&quot;&gt;«create&lt;/span&gt;&lt;span style=&quot;color: rgb(32, 33, 34); font-family: sans-serif; text-align: left; text-wrap-mode: wrap;&quot;&gt;»&lt;/span&gt;&lt;/font&gt;" style="edgeLabel;html=1;align=center;verticalAlign=middle;resizable=0;points=[];fontSize=14;" vertex="1" connectable="0" parent="tWvxPobddHoEqQ1ig2QX-130">
          <mxGeometry x="0.2911" y="-1" relative="1" as="geometry">
            <mxPoint x="-208" y="-11" as="offset" />
          </mxGeometry>
        </mxCell>
        <mxCell id="tWvxPobddHoEqQ1ig2QX-133" value="" style="endArrow=classic;html=1;rounded=0;fontSize=14;" edge="1" parent="1">
          <mxGeometry width="50" height="50" relative="1" as="geometry">
            <mxPoint x="1240.93" y="1619.5" as="sourcePoint" />
            <mxPoint x="4.5" y="1619.5" as="targetPoint" />
            <Array as="points">
              <mxPoint x="175" y="1619.5" />
            </Array>
          </mxGeometry>
        </mxCell>
        <mxCell id="tWvxPobddHoEqQ1ig2QX-134" value="displayUploadPhotoForm()" style="edgeLabel;html=1;align=center;verticalAlign=middle;resizable=0;points=[];fontSize=14;" vertex="1" connectable="0" parent="tWvxPobddHoEqQ1ig2QX-133">
          <mxGeometry x="-0.2564" y="-1" relative="1" as="geometry">
            <mxPoint x="-441" y="-9" as="offset" />
          </mxGeometry>
        </mxCell>
        <mxCell id="tWvxPobddHoEqQ1ig2QX-135" style="edgeStyle=orthogonalEdgeStyle;rounded=0;orthogonalLoop=1;jettySize=auto;html=1;curved=0;fontSize=14;" edge="1" parent="1">
          <mxGeometry relative="1" as="geometry">
            <mxPoint x="-354.9964705882351" y="1640" as="sourcePoint" />
            <mxPoint x="5" y="1640" as="targetPoint" />
            <Array as="points">
              <mxPoint x="-105" y="1640" />
              <mxPoint x="-105" y="1640" />
            </Array>
          </mxGeometry>
        </mxCell>
        <mxCell id="tWvxPobddHoEqQ1ig2QX-136" value="Upload Images &amp;amp; submitUploadPhotosForm()" style="edgeLabel;html=1;align=center;verticalAlign=middle;resizable=0;points=[];fontSize=14;" vertex="1" connectable="0" parent="tWvxPobddHoEqQ1ig2QX-135">
          <mxGeometry x="0.1051" y="2" relative="1" as="geometry">
            <mxPoint x="-9" y="-13" as="offset" />
          </mxGeometry>
        </mxCell>
        <mxCell id="tWvxPobddHoEqQ1ig2QX-137" style="edgeStyle=orthogonalEdgeStyle;rounded=0;orthogonalLoop=1;jettySize=auto;html=1;curved=0;fontSize=14;" edge="1" parent="1" target="tWvxPobddHoEqQ1ig2QX-129">
          <mxGeometry relative="1" as="geometry">
            <mxPoint x="5.003529411764873" y="1690" as="sourcePoint" />
            <mxPoint x="365" y="1690" as="targetPoint" />
            <Array as="points">
              <mxPoint x="5" y="1691" />
            </Array>
          </mxGeometry>
        </mxCell>
        <mxCell id="tWvxPobddHoEqQ1ig2QX-138" value="validatePhotos(photos)" style="edgeLabel;html=1;align=center;verticalAlign=middle;resizable=0;points=[];fontSize=14;" vertex="1" connectable="0" parent="tWvxPobddHoEqQ1ig2QX-137">
          <mxGeometry x="0.1051" y="2" relative="1" as="geometry">
            <mxPoint x="-323" y="-8" as="offset" />
          </mxGeometry>
        </mxCell>
        <mxCell id="tWvxPobddHoEqQ1ig2QX-139" value="" style="endArrow=classic;html=1;rounded=0;dashed=1;fontSize=14;" edge="1" parent="1">
          <mxGeometry width="50" height="50" relative="1" as="geometry">
            <mxPoint x="1241.43" y="1720" as="sourcePoint" />
            <mxPoint x="5" y="1720" as="targetPoint" />
            <Array as="points">
              <mxPoint x="175.5" y="1720" />
            </Array>
          </mxGeometry>
        </mxCell>
        <mxCell id="tWvxPobddHoEqQ1ig2QX-140" value="Valid Photos" style="edgeLabel;html=1;align=center;verticalAlign=middle;resizable=0;points=[];fontSize=14;" vertex="1" connectable="0" parent="tWvxPobddHoEqQ1ig2QX-139">
          <mxGeometry x="-0.2564" y="-1" relative="1" as="geometry">
            <mxPoint x="-121" y="-9" as="offset" />
          </mxGeometry>
        </mxCell>
        <mxCell id="tWvxPobddHoEqQ1ig2QX-141" style="edgeStyle=orthogonalEdgeStyle;rounded=0;orthogonalLoop=1;jettySize=auto;html=1;curved=0;fontSize=14;" edge="1" parent="1">
          <mxGeometry relative="1" as="geometry">
            <mxPoint x="5.00090909090909" y="1789.9999999999998" as="sourcePoint" />
            <mxPoint x="749.6700000000001" y="1791" as="targetPoint" />
            <Array as="points">
              <mxPoint x="5" y="1791" />
            </Array>
          </mxGeometry>
        </mxCell>
        <mxCell id="tWvxPobddHoEqQ1ig2QX-142" value="createErrormessage(&quot;Invalid format/size&quot;)" style="edgeLabel;html=1;align=center;verticalAlign=middle;resizable=0;points=[];fontSize=14;" vertex="1" connectable="0" parent="tWvxPobddHoEqQ1ig2QX-141">
          <mxGeometry x="0.2911" y="-1" relative="1" as="geometry">
            <mxPoint x="-116" y="-12" as="offset" />
          </mxGeometry>
        </mxCell>
        <mxCell id="tWvxPobddHoEqQ1ig2QX-143" value="" style="endArrow=classic;html=1;rounded=0;dashed=1;fontSize=14;" edge="1" parent="1">
          <mxGeometry width="50" height="50" relative="1" as="geometry">
            <mxPoint x="1241.43" y="1760" as="sourcePoint" />
            <mxPoint x="5" y="1760" as="targetPoint" />
            <Array as="points">
              <mxPoint x="175.5" y="1760" />
            </Array>
          </mxGeometry>
        </mxCell>
        <mxCell id="tWvxPobddHoEqQ1ig2QX-144" value="Invalid Photos" style="edgeLabel;html=1;align=center;verticalAlign=middle;resizable=0;points=[];fontSize=14;" vertex="1" connectable="0" parent="tWvxPobddHoEqQ1ig2QX-143">
          <mxGeometry x="-0.2564" y="-1" relative="1" as="geometry">
            <mxPoint x="-121" y="-9" as="offset" />
          </mxGeometry>
        </mxCell>
        <mxCell id="tWvxPobddHoEqQ1ig2QX-147" value="" style="endArrow=classic;html=1;rounded=0;fontSize=14;" edge="1" parent="1">
          <mxGeometry width="50" height="50" relative="1" as="geometry">
            <mxPoint x="749.6700000000001" y="1820" as="sourcePoint" />
            <mxPoint x="2.4773684210524882" y="1820" as="targetPoint" />
          </mxGeometry>
        </mxCell>
        <mxCell id="tWvxPobddHoEqQ1ig2QX-148" value="displayMessage()" style="edgeLabel;html=1;align=center;verticalAlign=middle;resizable=0;points=[];fontSize=14;" vertex="1" connectable="0" parent="tWvxPobddHoEqQ1ig2QX-147">
          <mxGeometry x="-0.2564" y="-1" relative="1" as="geometry">
            <mxPoint x="-112" y="-9" as="offset" />
          </mxGeometry>
        </mxCell>
        <mxCell id="tWvxPobddHoEqQ1ig2QX-149" style="edgeStyle=orthogonalEdgeStyle;rounded=0;orthogonalLoop=1;jettySize=auto;html=1;curved=0;fontSize=14;" edge="1" parent="1" target="tWvxPobddHoEqQ1ig2QX-129">
          <mxGeometry relative="1" as="geometry">
            <mxPoint x="5.00090909090909" y="1849.9999999999998" as="sourcePoint" />
            <mxPoint x="749.6700000000001" y="1851" as="targetPoint" />
            <Array as="points">
              <mxPoint x="5" y="1851" />
            </Array>
          </mxGeometry>
        </mxCell>
        <mxCell id="tWvxPobddHoEqQ1ig2QX-150" value="removeInvalidphotos()" style="edgeLabel;html=1;align=center;verticalAlign=middle;resizable=0;points=[];fontSize=14;" vertex="1" connectable="0" parent="tWvxPobddHoEqQ1ig2QX-149">
          <mxGeometry x="0.2911" y="-1" relative="1" as="geometry">
            <mxPoint x="-168" y="-11" as="offset" />
          </mxGeometry>
        </mxCell>
        <mxCell id="tWvxPobddHoEqQ1ig2QX-151" value="" style="endArrow=classic;html=1;rounded=0;dashed=1;fontSize=14;" edge="1" parent="1">
          <mxGeometry width="50" height="50" relative="1" as="geometry">
            <mxPoint x="1241.43" y="1880" as="sourcePoint" />
            <mxPoint x="5" y="1880" as="targetPoint" />
            <Array as="points">
              <mxPoint x="175.5" y="1880" />
            </Array>
          </mxGeometry>
        </mxCell>
        <mxCell id="tWvxPobddHoEqQ1ig2QX-152" value="return" style="edgeLabel;html=1;align=center;verticalAlign=middle;resizable=0;points=[];fontSize=14;" vertex="1" connectable="0" parent="tWvxPobddHoEqQ1ig2QX-151">
          <mxGeometry x="-0.2564" y="-1" relative="1" as="geometry">
            <mxPoint x="-141" y="-9" as="offset" />
          </mxGeometry>
        </mxCell>
        <mxCell id="tWvxPobddHoEqQ1ig2QX-154" value="" style="endArrow=none;dashed=1;html=1;strokeWidth=2;rounded=0;fillColor=#f8cecc;strokeColor=#FF0000;entryX=1.001;entryY=0.332;entryDx=0;entryDy=0;entryPerimeter=0;fontSize=14;" edge="1" parent="1" target="tWvxPobddHoEqQ1ig2QX-153">
          <mxGeometry width="50" height="50" relative="1" as="geometry">
            <mxPoint x="-25" y="1740" as="sourcePoint" />
            <mxPoint x="1135" y="1740" as="targetPoint" />
          </mxGeometry>
        </mxCell>
        <mxCell id="tWvxPobddHoEqQ1ig2QX-155" value="alt" style="rounded=0;whiteSpace=wrap;html=1;strokeColor=#FF0000;strokeWidth=2;fontColor=#FF0000;fontStyle=1;fontSize=14;" vertex="1" parent="1">
          <mxGeometry x="-25" y="1660" width="50" height="20" as="geometry" />
        </mxCell>
        <mxCell id="tWvxPobddHoEqQ1ig2QX-156" value="[valid photos]" style="text;html=1;align=center;verticalAlign=middle;resizable=0;points=[];autosize=1;strokeColor=none;fillColor=none;fontStyle=1;fontSize=14;" vertex="1" parent="1">
          <mxGeometry x="50" y="1660" width="110" height="30" as="geometry" />
        </mxCell>
        <mxCell id="tWvxPobddHoEqQ1ig2QX-157" value="[invalid photos]" style="text;html=1;align=center;verticalAlign=middle;resizable=0;points=[];autosize=1;strokeColor=none;fillColor=none;fontStyle=1;fontSize=14;" vertex="1" parent="1">
          <mxGeometry x="785" y="1780" width="120" height="30" as="geometry" />
        </mxCell>
        <mxCell id="tWvxPobddHoEqQ1ig2QX-158" style="edgeStyle=orthogonalEdgeStyle;rounded=0;orthogonalLoop=1;jettySize=auto;html=1;curved=0;fontSize=14;" edge="1" parent="1" target="tWvxPobddHoEqQ1ig2QX-5">
          <mxGeometry relative="1" as="geometry">
            <mxPoint x="5.003529411764873" y="1939.29" as="sourcePoint" />
            <mxPoint x="1245" y="1939.29" as="targetPoint" />
            <Array as="points">
              <mxPoint x="1085" y="1940" />
              <mxPoint x="1085" y="1940" />
            </Array>
          </mxGeometry>
        </mxCell>
        <mxCell id="tWvxPobddHoEqQ1ig2QX-159" value="attachPhotos(photos)" style="edgeLabel;html=1;align=center;verticalAlign=middle;resizable=0;points=[];fontSize=14;" vertex="1" connectable="0" parent="tWvxPobddHoEqQ1ig2QX-158">
          <mxGeometry x="0.1051" y="2" relative="1" as="geometry">
            <mxPoint x="-104" y="-13" as="offset" />
          </mxGeometry>
        </mxCell>
        <mxCell id="tWvxPobddHoEqQ1ig2QX-160" value="" style="endArrow=classic;html=1;rounded=0;dashed=1;fontSize=14;" edge="1" parent="1">
          <mxGeometry width="50" height="50" relative="1" as="geometry">
            <mxPoint x="1361.6000000000001" y="1970" as="sourcePoint" />
            <mxPoint x="235" y="1970" as="targetPoint" />
            <Array as="points">
              <mxPoint x="295.67" y="1970" />
            </Array>
          </mxGeometry>
        </mxCell>
        <mxCell id="tWvxPobddHoEqQ1ig2QX-161" value="return" style="edgeLabel;html=1;align=center;verticalAlign=middle;resizable=0;points=[];fontSize=14;" vertex="1" connectable="0" parent="tWvxPobddHoEqQ1ig2QX-160">
          <mxGeometry x="-0.2564" y="-1" relative="1" as="geometry">
            <mxPoint x="-106" y="-9" as="offset" />
          </mxGeometry>
        </mxCell>
        <mxCell id="tWvxPobddHoEqQ1ig2QX-162" style="edgeStyle=orthogonalEdgeStyle;rounded=0;orthogonalLoop=1;jettySize=auto;html=1;curved=0;fontSize=14;" edge="1" parent="1">
          <mxGeometry relative="1" as="geometry">
            <mxPoint x="228.851818181819" y="2000" as="sourcePoint" />
            <mxPoint x="509.6700000000001" y="2000" as="targetPoint" />
            <Array as="points" />
          </mxGeometry>
        </mxCell>
        <mxCell id="tWvxPobddHoEqQ1ig2QX-163" value="saveListing()" style="edgeLabel;html=1;align=center;verticalAlign=middle;resizable=0;points=[];fontSize=14;" vertex="1" connectable="0" parent="tWvxPobddHoEqQ1ig2QX-162">
          <mxGeometry x="0.1051" y="2" relative="1" as="geometry">
            <mxPoint x="-7" y="-8" as="offset" />
          </mxGeometry>
        </mxCell>
        <mxCell id="tWvxPobddHoEqQ1ig2QX-165" style="edgeStyle=orthogonalEdgeStyle;rounded=0;orthogonalLoop=1;jettySize=auto;html=1;curved=0;fontSize=14;" edge="1" parent="1">
          <mxGeometry relative="1" as="geometry">
            <mxPoint x="509.83666666666704" y="2030" as="sourcePoint" />
            <mxPoint x="929.5" y="2030" as="targetPoint" />
            <Array as="points">
              <mxPoint x="615" y="2030" />
              <mxPoint x="615" y="2030" />
            </Array>
          </mxGeometry>
        </mxCell>
        <mxCell id="tWvxPobddHoEqQ1ig2QX-166" value="createSuccessMessage(&quot;Listing Created&quot;)" style="edgeLabel;html=1;align=center;verticalAlign=middle;resizable=0;points=[];fontSize=14;" vertex="1" connectable="0" parent="tWvxPobddHoEqQ1ig2QX-165">
          <mxGeometry x="0.1051" y="2" relative="1" as="geometry">
            <mxPoint x="-7" y="-8" as="offset" />
          </mxGeometry>
        </mxCell>
        <mxCell id="tWvxPobddHoEqQ1ig2QX-167" value="" style="endArrow=classic;html=1;rounded=0;fontSize=14;" edge="1" parent="1">
          <mxGeometry width="50" height="50" relative="1" as="geometry">
            <mxPoint x="927.53" y="2060" as="sourcePoint" />
            <mxPoint x="3.9615384615381117" y="2060" as="targetPoint" />
          </mxGeometry>
        </mxCell>
        <mxCell id="tWvxPobddHoEqQ1ig2QX-168" value="displayMessage()" style="edgeLabel;html=1;align=center;verticalAlign=middle;resizable=0;points=[];fontSize=14;" vertex="1" connectable="0" parent="tWvxPobddHoEqQ1ig2QX-167">
          <mxGeometry x="-0.2564" y="-1" relative="1" as="geometry">
            <mxPoint x="-204" y="-9" as="offset" />
          </mxGeometry>
        </mxCell>
        <mxCell id="tWvxPobddHoEqQ1ig2QX-169" style="edgeStyle=orthogonalEdgeStyle;rounded=0;orthogonalLoop=1;jettySize=auto;html=1;curved=0;fontSize=14;" edge="1" parent="1">
          <mxGeometry relative="1" as="geometry">
            <mxPoint x="5.001818181819004" y="2100" as="sourcePoint" />
            <mxPoint x="1449.5" y="2100.076923076923" as="targetPoint" />
            <Array as="points">
              <mxPoint x="1075" y="2100" />
              <mxPoint x="1075" y="2100" />
            </Array>
          </mxGeometry>
        </mxCell>
        <mxCell id="tWvxPobddHoEqQ1ig2QX-170" value="triggerLocationEntry(listingID)" style="edgeLabel;html=1;align=center;verticalAlign=middle;resizable=0;points=[];fontSize=14;" vertex="1" connectable="0" parent="tWvxPobddHoEqQ1ig2QX-169">
          <mxGeometry x="0.1051" y="2" relative="1" as="geometry">
            <mxPoint x="-163" y="-8" as="offset" />
          </mxGeometry>
        </mxCell>
        <mxCell id="tWvxPobddHoEqQ1ig2QX-174" value="" style="endArrow=classic;html=1;rounded=0;dashed=1;fontSize=14;" edge="1" parent="1">
          <mxGeometry width="50" height="50" relative="1" as="geometry">
            <mxPoint x="1104.5" y="1420" as="sourcePoint" />
            <mxPoint x="240" y="1420" as="targetPoint" />
          </mxGeometry>
        </mxCell>
        <mxCell id="tWvxPobddHoEqQ1ig2QX-175" value="Valid Roomate Number" style="edgeLabel;html=1;align=center;verticalAlign=middle;resizable=0;points=[];fontSize=14;" vertex="1" connectable="0" parent="tWvxPobddHoEqQ1ig2QX-174">
          <mxGeometry x="-0.2564" y="-1" relative="1" as="geometry">
            <mxPoint x="-452" y="-9" as="offset" />
          </mxGeometry>
        </mxCell>
        <mxCell id="tWvxPobddHoEqQ1ig2QX-176" style="edgeStyle=orthogonalEdgeStyle;rounded=0;orthogonalLoop=1;jettySize=auto;html=1;curved=0;fontSize=14;" edge="1" parent="1">
          <mxGeometry relative="1" as="geometry">
            <mxPoint x="510.0015384615382" y="1464.6569230769228" as="sourcePoint" />
            <mxPoint x="930.37" y="1464.6569230769228" as="targetPoint" />
            <Array as="points">
              <mxPoint x="765.87" y="1464.58" />
              <mxPoint x="765.87" y="1464.58" />
            </Array>
          </mxGeometry>
        </mxCell>
        <mxCell id="tWvxPobddHoEqQ1ig2QX-177" value="createValidationMessage()" style="edgeLabel;html=1;align=center;verticalAlign=middle;resizable=0;points=[];fontSize=14;" vertex="1" connectable="0" parent="tWvxPobddHoEqQ1ig2QX-176">
          <mxGeometry x="0.2911" y="-1" relative="1" as="geometry">
            <mxPoint x="-130" y="-11" as="offset" />
          </mxGeometry>
        </mxCell>
        <mxCell id="tWvxPobddHoEqQ1ig2QX-178" value="" style="endArrow=classic;html=1;rounded=0;fontSize=14;" edge="1" parent="1">
          <mxGeometry width="50" height="50" relative="1" as="geometry">
            <mxPoint x="932.53" y="1490" as="sourcePoint" />
            <mxPoint x="7.477368421052489" y="1490" as="targetPoint" />
          </mxGeometry>
        </mxCell>
        <mxCell id="tWvxPobddHoEqQ1ig2QX-179" value="displayMessage()" style="edgeLabel;html=1;align=center;verticalAlign=middle;resizable=0;points=[];fontSize=14;" vertex="1" connectable="0" parent="tWvxPobddHoEqQ1ig2QX-178">
          <mxGeometry x="-0.2564" y="-1" relative="1" as="geometry">
            <mxPoint x="-249" y="-9" as="offset" />
          </mxGeometry>
        </mxCell>
        <mxCell id="tWvxPobddHoEqQ1ig2QX-180" value="" style="endArrow=none;dashed=1;html=1;strokeWidth=2;rounded=0;fillColor=#f8cecc;strokeColor=#FF0000;fontSize=14;exitX=0.001;exitY=0.439;exitDx=0;exitDy=0;exitPerimeter=0;" edge="1" parent="1" source="tWvxPobddHoEqQ1ig2QX-171">
          <mxGeometry width="50" height="50" relative="1" as="geometry">
            <mxPoint x="-30" y="1440" as="sourcePoint" />
            <mxPoint x="1130" y="1440" as="targetPoint" />
          </mxGeometry>
        </mxCell>
        <mxCell id="tWvxPobddHoEqQ1ig2QX-181" value="[valid Roomates]" style="text;html=1;align=center;verticalAlign=middle;resizable=0;points=[];autosize=1;strokeColor=none;fillColor=none;fontStyle=1;fontSize=14;" vertex="1" parent="1">
          <mxGeometry x="35" y="1400" width="130" height="30" as="geometry" />
        </mxCell>
        <mxCell id="tWvxPobddHoEqQ1ig2QX-182" value="[validation error]" style="text;html=1;align=center;verticalAlign=middle;resizable=0;points=[];autosize=1;strokeColor=none;fillColor=none;fontStyle=1;fontSize=14;" vertex="1" parent="1">
          <mxGeometry x="40" y="1450" width="120" height="30" as="geometry" />
        </mxCell>
        <mxCell id="tWvxPobddHoEqQ1ig2QX-183" value="alt" style="rounded=0;whiteSpace=wrap;html=1;strokeColor=#FF0000;strokeWidth=2;fontColor=#FF0000;fontStyle=1;fontSize=14;" vertex="1" parent="1">
          <mxGeometry x="-80" y="1370" width="50" height="20" as="geometry" />
        </mxCell>
        <mxCell id="tWvxPobddHoEqQ1ig2QX-184" style="edgeStyle=orthogonalEdgeStyle;rounded=0;orthogonalLoop=1;jettySize=auto;html=1;curved=0;dashed=1;fontSize=14;" edge="1" parent="1">
          <mxGeometry relative="1" as="geometry">
            <mxPoint x="0.04352941176487235" y="1510" as="sourcePoint" />
            <mxPoint x="224.71000000000006" y="1511.0370370370367" as="targetPoint" />
            <Array as="points">
              <mxPoint x="0.03999999999999915" y="1511" />
            </Array>
          </mxGeometry>
        </mxCell>
        <mxCell id="tWvxPobddHoEqQ1ig2QX-185" value="return" style="edgeLabel;html=1;align=center;verticalAlign=middle;resizable=0;points=[];fontSize=14;" vertex="1" connectable="0" parent="tWvxPobddHoEqQ1ig2QX-184">
          <mxGeometry x="0.1051" y="2" relative="1" as="geometry">
            <mxPoint x="-7" y="-8" as="offset" />
          </mxGeometry>
        </mxCell>
        <mxCell id="tWvxPobddHoEqQ1ig2QX-188" value="Use Case 1 : Δημιουργία Αγγελίας Κατοικίας" style="text;html=1;align=center;verticalAlign=middle;resizable=0;points=[];autosize=1;strokeColor=none;fillColor=none;fontSize=20;fontStyle=1" vertex="1" parent="1">
          <mxGeometry x="320" y="-10" width="440" height="36" as="geometry" />
        </mxCell>
      </root>
    </mxGraphModel>
  </diagram>
  <diagram id="BNh5LDNNK8UHC8USLPbE" name="Σελίδα-2">
    <mxGraphModel dx="2056" dy="966" grid="1" gridSize="10" guides="1" tooltips="1" connect="1" arrows="1" fold="1" page="0" pageScale="1" pageWidth="827" pageHeight="1169" math="0" shadow="0">
      <root>
        <mxCell id="0" />
        <mxCell id="1" parent="0" />
        <mxCell id="mHkTtxNrbI0tAHEEozBp-7" style="edgeStyle=orthogonalEdgeStyle;rounded=0;orthogonalLoop=1;jettySize=auto;html=1;curved=0;dashed=1;" edge="1" parent="1">
          <mxGeometry relative="1" as="geometry">
            <mxPoint x="594.85" y="270" as="sourcePoint" />
            <mxPoint x="369.9957692307697" y="270" as="targetPoint" />
          </mxGeometry>
        </mxCell>
        <mxCell id="mHkTtxNrbI0tAHEEozBp-8" value="return searchOptions()" style="edgeLabel;html=1;align=center;verticalAlign=middle;resizable=0;points=[];fontSize=12;" vertex="1" connectable="0" parent="mHkTtxNrbI0tAHEEozBp-7">
          <mxGeometry x="0.0982" y="1" relative="1" as="geometry">
            <mxPoint y="-11" as="offset" />
          </mxGeometry>
        </mxCell>
        <mxCell id="AuVgpGqheeqocLXr0-gf-1" value=": ManageDB" style="shape=umlLifeline;perimeter=lifelinePerimeter;whiteSpace=wrap;html=1;container=1;dropTarget=0;collapsible=0;recursiveResize=0;outlineConnect=0;portConstraint=eastwest;newEdgeStyle={&quot;curved&quot;:0,&quot;rounded&quot;:0};fillColor=#dae8fc;strokeColor=#000066;fontSize=16;" vertex="1" parent="1">
          <mxGeometry x="540" y="50" width="110" height="2110" as="geometry" />
        </mxCell>
        <mxCell id="AuVgpGqheeqocLXr0-gf-2" value=": ManageSearchHousing" style="shape=umlLifeline;perimeter=lifelinePerimeter;whiteSpace=wrap;html=1;container=1;dropTarget=0;collapsible=0;recursiveResize=0;outlineConnect=0;portConstraint=eastwest;newEdgeStyle={&quot;curved&quot;:0,&quot;rounded&quot;:0};fillColor=#dae8fc;strokeColor=#000066;fontSize=16;" vertex="1" parent="1">
          <mxGeometry x="280" y="50" width="179.83" height="2110" as="geometry" />
        </mxCell>
        <mxCell id="AuVgpGqheeqocLXr0-gf-3" value=": MapService" style="shape=umlLifeline;perimeter=lifelinePerimeter;whiteSpace=wrap;html=1;container=1;dropTarget=0;collapsible=0;recursiveResize=0;outlineConnect=0;portConstraint=eastwest;newEdgeStyle={&quot;curved&quot;:0,&quot;rounded&quot;:0};fillColor=#dae8fc;strokeColor=#000066;fontSize=16;" vertex="1" parent="1">
          <mxGeometry x="1320" y="50" width="110" height="2110" as="geometry" />
        </mxCell>
        <mxCell id="AuVgpGqheeqocLXr0-gf-4" value=": MainScreen" style="shape=umlLifeline;perimeter=lifelinePerimeter;whiteSpace=wrap;html=1;container=1;dropTarget=0;collapsible=0;recursiveResize=0;outlineConnect=0;portConstraint=eastwest;newEdgeStyle={&quot;curved&quot;:0,&quot;rounded&quot;:0};fillColor=#dae8fc;strokeColor=#000066;fontSize=16;" vertex="1" parent="1">
          <mxGeometry x="-240" y="50" width="110" height="1990" as="geometry" />
        </mxCell>
        <mxCell id="AuVgpGqheeqocLXr0-gf-5" value=":SearchHousingScreen" style="shape=umlLifeline;perimeter=lifelinePerimeter;whiteSpace=wrap;html=1;container=1;dropTarget=0;collapsible=0;recursiveResize=0;outlineConnect=0;portConstraint=eastwest;newEdgeStyle={&quot;curved&quot;:0,&quot;rounded&quot;:0};fillColor=#dae8fc;strokeColor=#000066;fontSize=16;" vertex="1" parent="1">
          <mxGeometry x="-30" y="50" width="210" height="2110" as="geometry" />
        </mxCell>
        <mxCell id="AuVgpGqheeqocLXr0-gf-6" value=": SearchHousingForm" style="shape=umlLifeline;perimeter=lifelinePerimeter;whiteSpace=wrap;html=1;container=1;dropTarget=0;collapsible=0;recursiveResize=0;outlineConnect=0;portConstraint=eastwest;newEdgeStyle={&quot;curved&quot;:0,&quot;rounded&quot;:0};fillColor=#dae8fc;strokeColor=#000066;fontSize=16;" vertex="1" parent="1">
          <mxGeometry x="730" y="280" width="170" height="1860" as="geometry" />
        </mxCell>
        <mxCell id="x8S56rJu70tIzhP-zElR-5" style="edgeStyle=orthogonalEdgeStyle;rounded=0;orthogonalLoop=1;jettySize=auto;html=1;curved=0;" edge="1" parent="1">
          <mxGeometry relative="1" as="geometry">
            <mxPoint x="-359.9966666666665" y="130" as="sourcePoint" />
            <mxPoint x="-184.33" y="130" as="targetPoint" />
          </mxGeometry>
        </mxCell>
        <mxCell id="x8S56rJu70tIzhP-zElR-6" value="Search Housing" style="edgeLabel;html=1;align=center;verticalAlign=middle;resizable=0;points=[];fontSize=12;" vertex="1" connectable="0" parent="x8S56rJu70tIzhP-zElR-5">
          <mxGeometry x="-0.1387" y="3" relative="1" as="geometry">
            <mxPoint y="-7" as="offset" />
          </mxGeometry>
        </mxCell>
        <mxCell id="vzXx4JQWKyGi4oi1eNeH-1" value="" style="shape=umlLifeline;perimeter=lifelinePerimeter;whiteSpace=wrap;html=1;container=1;dropTarget=0;collapsible=0;recursiveResize=0;outlineConnect=0;portConstraint=eastwest;newEdgeStyle={&quot;curved&quot;:0,&quot;rounded&quot;:0};participant=umlActor;fontSize=16;" vertex="1" parent="1">
          <mxGeometry x="-370" y="50" width="20" height="1990" as="geometry" />
        </mxCell>
        <mxCell id="JJPIAGQ7rtzuspelxo5V-1" value="User" style="edgeLabel;html=1;align=center;verticalAlign=middle;resizable=0;points=[];fontSize=16;" vertex="1" connectable="0" parent="1">
          <mxGeometry x="-359.9964705882351" y="30" as="geometry">
            <mxPoint as="offset" />
          </mxGeometry>
        </mxCell>
        <mxCell id="x8S56rJu70tIzhP-zElR-1" value=": Listing" style="shape=umlLifeline;perimeter=lifelinePerimeter;whiteSpace=wrap;html=1;container=1;dropTarget=0;collapsible=0;recursiveResize=0;outlineConnect=0;portConstraint=eastwest;newEdgeStyle={&quot;curved&quot;:0,&quot;rounded&quot;:0};fillColor=#dae8fc;strokeColor=#000066;fontSize=16;" vertex="1" parent="1">
          <mxGeometry x="1510" y="50" width="110" height="2110" as="geometry" />
        </mxCell>
        <mxCell id="x8S56rJu70tIzhP-zElR-2" value=": Rental Interest" style="shape=umlLifeline;perimeter=lifelinePerimeter;whiteSpace=wrap;html=1;container=1;dropTarget=0;collapsible=0;recursiveResize=0;outlineConnect=0;portConstraint=eastwest;newEdgeStyle={&quot;curved&quot;:0,&quot;rounded&quot;:0};fillColor=#dae8fc;strokeColor=#000066;fontSize=16;" vertex="1" parent="1">
          <mxGeometry x="1690" y="50" width="130" height="2110" as="geometry" />
        </mxCell>
        <mxCell id="x8S56rJu70tIzhP-zElR-3" value=": User Preferences" style="shape=umlLifeline;perimeter=lifelinePerimeter;whiteSpace=wrap;html=1;container=1;dropTarget=0;collapsible=0;recursiveResize=0;outlineConnect=0;portConstraint=eastwest;newEdgeStyle={&quot;curved&quot;:0,&quot;rounded&quot;:0};fillColor=#dae8fc;strokeColor=#000066;fontSize=16;" vertex="1" parent="1">
          <mxGeometry x="1120" y="50" width="160" height="2110" as="geometry" />
        </mxCell>
        <mxCell id="x8S56rJu70tIzhP-zElR-4" value=": Message" style="shape=umlLifeline;perimeter=lifelinePerimeter;whiteSpace=wrap;html=1;container=1;dropTarget=0;collapsible=0;recursiveResize=0;outlineConnect=0;portConstraint=eastwest;newEdgeStyle={&quot;curved&quot;:0,&quot;rounded&quot;:0};fillColor=#dae8fc;strokeColor=#000066;fontSize=16;" vertex="1" parent="1">
          <mxGeometry x="910" y="50" width="160" height="2110" as="geometry" />
        </mxCell>
        <mxCell id="mHkTtxNrbI0tAHEEozBp-1" style="edgeStyle=orthogonalEdgeStyle;rounded=0;orthogonalLoop=1;jettySize=auto;html=1;curved=0;fontSize=14;" edge="1" parent="1">
          <mxGeometry relative="1" as="geometry">
            <mxPoint x="-185.24074074074042" y="159.99703703703707" as="sourcePoint" />
            <mxPoint x="-185.36956521739125" y="180.00000000000023" as="targetPoint" />
            <Array as="points">
              <mxPoint x="-30" y="160" />
              <mxPoint x="-30" y="180" />
            </Array>
          </mxGeometry>
        </mxCell>
        <mxCell id="mHkTtxNrbI0tAHEEozBp-2" value="onSearchHousingClicked()" style="edgeLabel;html=1;align=center;verticalAlign=middle;resizable=0;points=[];fontSize=12;" vertex="1" connectable="0" parent="mHkTtxNrbI0tAHEEozBp-1">
          <mxGeometry x="0.485" y="-1" relative="1" as="geometry">
            <mxPoint y="-29" as="offset" />
          </mxGeometry>
        </mxCell>
        <mxCell id="mHkTtxNrbI0tAHEEozBp-3" style="edgeStyle=orthogonalEdgeStyle;rounded=0;orthogonalLoop=1;jettySize=auto;html=1;curved=0;" edge="1" parent="1">
          <mxGeometry relative="1" as="geometry">
            <mxPoint x="-179.9966666666665" y="210" as="sourcePoint" />
            <mxPoint x="369.4150000000004" y="210" as="targetPoint" />
            <Array as="points">
              <mxPoint x="230" y="210" />
              <mxPoint x="230" y="210" />
            </Array>
          </mxGeometry>
        </mxCell>
        <mxCell id="mHkTtxNrbI0tAHEEozBp-4" value="initiateSearchHousing()" style="edgeLabel;html=1;align=center;verticalAlign=middle;resizable=0;points=[];fontSize=12;" vertex="1" connectable="0" parent="mHkTtxNrbI0tAHEEozBp-3">
          <mxGeometry x="-0.1387" y="3" relative="1" as="geometry">
            <mxPoint y="-7" as="offset" />
          </mxGeometry>
        </mxCell>
        <mxCell id="mHkTtxNrbI0tAHEEozBp-5" style="edgeStyle=orthogonalEdgeStyle;rounded=0;orthogonalLoop=1;jettySize=auto;html=1;curved=0;" edge="1" parent="1">
          <mxGeometry relative="1" as="geometry">
            <mxPoint x="370.0033333333335" y="240" as="sourcePoint" />
            <mxPoint x="594.5" y="240" as="targetPoint" />
            <Array as="points">
              <mxPoint x="530" y="240" />
              <mxPoint x="530" y="240" />
            </Array>
          </mxGeometry>
        </mxCell>
        <mxCell id="mHkTtxNrbI0tAHEEozBp-6" value="fetchSearchFormData()" style="edgeLabel;html=1;align=center;verticalAlign=middle;resizable=0;points=[];fontSize=12;" vertex="1" connectable="0" parent="mHkTtxNrbI0tAHEEozBp-5">
          <mxGeometry x="-0.1387" y="3" relative="1" as="geometry">
            <mxPoint y="-7" as="offset" />
          </mxGeometry>
        </mxCell>
        <mxCell id="mHkTtxNrbI0tAHEEozBp-9" style="edgeStyle=orthogonalEdgeStyle;rounded=0;orthogonalLoop=1;jettySize=auto;html=1;curved=0;dashed=1;" edge="1" parent="1">
          <mxGeometry relative="1" as="geometry">
            <mxPoint x="370.0033333333335" y="300" as="sourcePoint" />
            <mxPoint x="730" y="300" as="targetPoint" />
            <Array as="points">
              <mxPoint x="530" y="300" />
              <mxPoint x="530" y="300" />
            </Array>
          </mxGeometry>
        </mxCell>
        <mxCell id="uCHO762b4xSxebiMxfc_-2" value="&lt;span style=&quot;text-align: left; text-wrap-mode: wrap; background-color: rgb(255, 255, 255); color: light-dark(rgb(32, 33, 34), rgb(208, 209, 210)); font-family: sans-serif;&quot;&gt;«create&lt;/span&gt;&lt;span style=&quot;text-align: left; text-wrap-mode: wrap; background-color: rgb(255, 255, 255); color: light-dark(rgb(32, 33, 34), rgb(208, 209, 210)); font-family: sans-serif;&quot;&gt;»&lt;/span&gt;" style="edgeLabel;html=1;align=center;verticalAlign=middle;resizable=0;points=[];fontSize=12;" vertex="1" connectable="0" parent="mHkTtxNrbI0tAHEEozBp-9">
          <mxGeometry x="-0.0076" y="1" relative="1" as="geometry">
            <mxPoint x="112" y="-9" as="offset" />
          </mxGeometry>
        </mxCell>
        <mxCell id="uCHO762b4xSxebiMxfc_-3" style="edgeStyle=orthogonalEdgeStyle;rounded=0;orthogonalLoop=1;jettySize=auto;html=1;curved=0;" edge="1" parent="1">
          <mxGeometry relative="1" as="geometry">
            <mxPoint x="370.0033333333335" y="350" as="sourcePoint" />
            <mxPoint x="814.5" y="350" as="targetPoint" />
            <Array as="points">
              <mxPoint x="650" y="350" />
              <mxPoint x="650" y="350" />
            </Array>
          </mxGeometry>
        </mxCell>
        <mxCell id="uCHO762b4xSxebiMxfc_-4" value="createSeachHousingForm(formData)" style="edgeLabel;html=1;align=center;verticalAlign=middle;resizable=0;points=[];fontSize=12;" vertex="1" connectable="0" parent="uCHO762b4xSxebiMxfc_-3">
          <mxGeometry x="-0.1387" y="3" relative="1" as="geometry">
            <mxPoint x="-71" y="-7" as="offset" />
          </mxGeometry>
        </mxCell>
        <mxCell id="uCHO762b4xSxebiMxfc_-5" style="edgeStyle=orthogonalEdgeStyle;rounded=0;orthogonalLoop=1;jettySize=auto;html=1;curved=0;" edge="1" parent="1">
          <mxGeometry relative="1" as="geometry">
            <mxPoint x="814.5" y="380" as="sourcePoint" />
            <mxPoint x="74.38888888888869" y="380" as="targetPoint" />
            <Array as="points">
              <mxPoint x="630" y="380" />
              <mxPoint x="630" y="380" />
            </Array>
          </mxGeometry>
        </mxCell>
        <mxCell id="uCHO762b4xSxebiMxfc_-6" value="displaySearchForm()" style="edgeLabel;html=1;align=center;verticalAlign=middle;resizable=0;points=[];fontSize=12;" vertex="1" connectable="0" parent="uCHO762b4xSxebiMxfc_-5">
          <mxGeometry x="0.0982" y="1" relative="1" as="geometry">
            <mxPoint x="-158" y="-11" as="offset" />
          </mxGeometry>
        </mxCell>
        <mxCell id="uCHO762b4xSxebiMxfc_-7" style="edgeStyle=orthogonalEdgeStyle;rounded=0;orthogonalLoop=1;jettySize=auto;html=1;curved=0;" edge="1" parent="1" target="AuVgpGqheeqocLXr0-gf-5">
          <mxGeometry relative="1" as="geometry">
            <mxPoint x="-359.9966666666665" y="410" as="sourcePoint" />
            <mxPoint x="-184.33" y="410" as="targetPoint" />
            <Array as="points">
              <mxPoint x="-60" y="410" />
              <mxPoint x="-60" y="410" />
            </Array>
          </mxGeometry>
        </mxCell>
        <mxCell id="uCHO762b4xSxebiMxfc_-8" value="fillSearchCriteria()" style="edgeLabel;html=1;align=center;verticalAlign=middle;resizable=0;points=[];fontSize=12;" vertex="1" connectable="0" parent="uCHO762b4xSxebiMxfc_-7">
          <mxGeometry x="-0.1387" y="3" relative="1" as="geometry">
            <mxPoint x="73" y="-7" as="offset" />
          </mxGeometry>
        </mxCell>
        <mxCell id="uCHO762b4xSxebiMxfc_-9" style="edgeStyle=orthogonalEdgeStyle;rounded=0;orthogonalLoop=1;jettySize=auto;html=1;curved=0;" edge="1" parent="1" target="AuVgpGqheeqocLXr0-gf-6">
          <mxGeometry relative="1" as="geometry">
            <mxPoint x="80" y="441" as="sourcePoint" />
            <mxPoint x="505" y="440" as="targetPoint" />
            <Array as="points">
              <mxPoint x="590" y="441" />
              <mxPoint x="590" y="441" />
            </Array>
          </mxGeometry>
        </mxCell>
        <mxCell id="uCHO762b4xSxebiMxfc_-10" value="getSearchCriteria()" style="edgeLabel;html=1;align=center;verticalAlign=middle;resizable=0;points=[];fontSize=12;" vertex="1" connectable="0" parent="uCHO762b4xSxebiMxfc_-9">
          <mxGeometry x="-0.1387" y="3" relative="1" as="geometry">
            <mxPoint x="73" y="-7" as="offset" />
          </mxGeometry>
        </mxCell>
        <mxCell id="uCHO762b4xSxebiMxfc_-11" style="edgeStyle=orthogonalEdgeStyle;rounded=0;orthogonalLoop=1;jettySize=auto;html=1;curved=0;fontSize=14;" edge="1" parent="1">
          <mxGeometry relative="1" as="geometry">
            <mxPoint x="820.1292592592596" y="469.9970370370371" as="sourcePoint" />
            <mxPoint x="820.0004347826087" y="490.0000000000002" as="targetPoint" />
            <Array as="points">
              <mxPoint x="950" y="470" />
              <mxPoint x="950" y="490" />
            </Array>
          </mxGeometry>
        </mxCell>
        <mxCell id="uCHO762b4xSxebiMxfc_-13" value="validateSearchForm()" style="edgeLabel;html=1;align=center;verticalAlign=middle;resizable=0;points=[];fontSize=12;" vertex="1" connectable="0" parent="uCHO762b4xSxebiMxfc_-11">
          <mxGeometry x="-0.5109" y="8" relative="1" as="geometry">
            <mxPoint y="-2" as="offset" />
          </mxGeometry>
        </mxCell>
        <mxCell id="uCHO762b4xSxebiMxfc_-14" style="edgeStyle=orthogonalEdgeStyle;rounded=0;orthogonalLoop=1;jettySize=auto;html=1;curved=0;dashed=1;" edge="1" parent="1" target="AuVgpGqheeqocLXr0-gf-2">
          <mxGeometry relative="1" as="geometry">
            <mxPoint x="814.85" y="520" as="sourcePoint" />
            <mxPoint x="589.9957692307697" y="520" as="targetPoint" />
            <Array as="points">
              <mxPoint x="500" y="520" />
              <mxPoint x="500" y="520" />
            </Array>
          </mxGeometry>
        </mxCell>
        <mxCell id="uCHO762b4xSxebiMxfc_-15" value="Success Validation" style="edgeLabel;html=1;align=center;verticalAlign=middle;resizable=0;points=[];fontSize=12;" vertex="1" connectable="0" parent="uCHO762b4xSxebiMxfc_-14">
          <mxGeometry x="0.0982" y="1" relative="1" as="geometry">
            <mxPoint x="-51" y="-11" as="offset" />
          </mxGeometry>
        </mxCell>
        <mxCell id="uCHO762b4xSxebiMxfc_-16" style="edgeStyle=orthogonalEdgeStyle;rounded=0;orthogonalLoop=1;jettySize=auto;html=1;curved=0;dashed=1;" edge="1" parent="1">
          <mxGeometry relative="1" as="geometry">
            <mxPoint x="814.85" y="560" as="sourcePoint" />
            <mxPoint x="370" y="560" as="targetPoint" />
            <Array as="points">
              <mxPoint x="500" y="560" />
              <mxPoint x="500" y="560" />
            </Array>
          </mxGeometry>
        </mxCell>
        <mxCell id="uCHO762b4xSxebiMxfc_-17" value="Failed Validation" style="edgeLabel;html=1;align=center;verticalAlign=middle;resizable=0;points=[];fontSize=12;" vertex="1" connectable="0" parent="uCHO762b4xSxebiMxfc_-16">
          <mxGeometry x="0.0982" y="1" relative="1" as="geometry">
            <mxPoint x="-51" y="-11" as="offset" />
          </mxGeometry>
        </mxCell>
        <mxCell id="uCHO762b4xSxebiMxfc_-18" style="edgeStyle=orthogonalEdgeStyle;rounded=0;orthogonalLoop=1;jettySize=auto;html=1;curved=0;" edge="1" parent="1">
          <mxGeometry relative="1" as="geometry">
            <mxPoint x="370" y="590" as="sourcePoint" />
            <mxPoint x="990" y="590" as="targetPoint" />
            <Array as="points">
              <mxPoint x="880" y="590" />
              <mxPoint x="880" y="590" />
            </Array>
          </mxGeometry>
        </mxCell>
        <mxCell id="uCHO762b4xSxebiMxfc_-19" value="createErrorMessage(&quot;Invalid Form Fields&quot;)" style="edgeLabel;html=1;align=center;verticalAlign=middle;resizable=0;points=[];fontSize=12;" vertex="1" connectable="0" parent="uCHO762b4xSxebiMxfc_-18">
          <mxGeometry x="-0.1387" y="3" relative="1" as="geometry">
            <mxPoint x="123" y="-7" as="offset" />
          </mxGeometry>
        </mxCell>
        <mxCell id="g_P3VmV68ANNvG66qyaV-1" style="edgeStyle=orthogonalEdgeStyle;rounded=0;orthogonalLoop=1;jettySize=auto;html=1;curved=0;" edge="1" parent="1" source="x8S56rJu70tIzhP-zElR-4" target="AuVgpGqheeqocLXr0-gf-5">
          <mxGeometry relative="1" as="geometry">
            <mxPoint x="515.85" y="620" as="sourcePoint" />
            <mxPoint x="70" y="620" as="targetPoint" />
            <Array as="points">
              <mxPoint x="400" y="620" />
              <mxPoint x="400" y="620" />
            </Array>
          </mxGeometry>
        </mxCell>
        <mxCell id="g_P3VmV68ANNvG66qyaV-2" value="displayMessage()" style="edgeLabel;html=1;align=center;verticalAlign=middle;resizable=0;points=[];fontSize=12;" vertex="1" connectable="0" parent="g_P3VmV68ANNvG66qyaV-1">
          <mxGeometry x="0.0982" y="1" relative="1" as="geometry">
            <mxPoint x="-267" y="-11" as="offset" />
          </mxGeometry>
        </mxCell>
        <mxCell id="g_P3VmV68ANNvG66qyaV-3" style="edgeStyle=orthogonalEdgeStyle;rounded=0;orthogonalLoop=1;jettySize=auto;html=1;curved=0;" edge="1" parent="1" target="AuVgpGqheeqocLXr0-gf-2">
          <mxGeometry relative="1" as="geometry">
            <mxPoint x="80" y="660" as="sourcePoint" />
            <mxPoint x="815" y="660" as="targetPoint" />
            <Array as="points">
              <mxPoint x="300" y="660" />
              <mxPoint x="300" y="660" />
            </Array>
          </mxGeometry>
        </mxCell>
        <mxCell id="g_P3VmV68ANNvG66qyaV-4" value="loadUsersPreferences(userID)" style="edgeLabel;html=1;align=center;verticalAlign=middle;resizable=0;points=[];fontSize=12;" vertex="1" connectable="0" parent="g_P3VmV68ANNvG66qyaV-3">
          <mxGeometry x="-0.1387" y="3" relative="1" as="geometry">
            <mxPoint x="25" y="-7" as="offset" />
          </mxGeometry>
        </mxCell>
        <mxCell id="g_P3VmV68ANNvG66qyaV-5" style="edgeStyle=orthogonalEdgeStyle;rounded=0;orthogonalLoop=1;jettySize=auto;html=1;curved=0;" edge="1" parent="1" target="x8S56rJu70tIzhP-zElR-3">
          <mxGeometry relative="1" as="geometry">
            <mxPoint x="370" y="680" as="sourcePoint" />
            <mxPoint x="659" y="680" as="targetPoint" />
            <Array as="points">
              <mxPoint x="950" y="680" />
              <mxPoint x="950" y="680" />
            </Array>
          </mxGeometry>
        </mxCell>
        <mxCell id="g_P3VmV68ANNvG66qyaV-6" value="getUserPreferences(userID)" style="edgeLabel;html=1;align=center;verticalAlign=middle;resizable=0;points=[];fontSize=12;" vertex="1" connectable="0" parent="g_P3VmV68ANNvG66qyaV-5">
          <mxGeometry x="-0.1387" y="3" relative="1" as="geometry">
            <mxPoint x="-18" y="-7" as="offset" />
          </mxGeometry>
        </mxCell>
        <mxCell id="g_P3VmV68ANNvG66qyaV-7" style="edgeStyle=orthogonalEdgeStyle;rounded=0;orthogonalLoop=1;jettySize=auto;html=1;curved=0;dashed=1;" edge="1" parent="1" target="AuVgpGqheeqocLXr0-gf-2">
          <mxGeometry relative="1" as="geometry">
            <mxPoint x="1199.5" y="720.04" as="sourcePoint" />
            <mxPoint x="372.58" y="720" as="targetPoint" />
            <Array as="points">
              <mxPoint x="830" y="721" />
            </Array>
          </mxGeometry>
        </mxCell>
        <mxCell id="g_P3VmV68ANNvG66qyaV-8" value="return userPreferences" style="edgeLabel;html=1;align=center;verticalAlign=middle;resizable=0;points=[];fontSize=12;" vertex="1" connectable="0" parent="g_P3VmV68ANNvG66qyaV-7">
          <mxGeometry x="0.0982" y="1" relative="1" as="geometry">
            <mxPoint x="-33" y="-11" as="offset" />
          </mxGeometry>
        </mxCell>
      </root>
    </mxGraphModel>
  </diagram>
</mxfile>
